<?xml version="1.0" encoding="UTF-8" standalone="no"?>
<!-- Created with Inkscape (http://www.inkscape.org/) -->

<svg
   version="1.1"
   id="svg1"
   width="1624"
   height="528.96002"
   viewBox="0 0 1624 528.96002"
   sodipodi:docname="upload_rribp3gde7m5p5ht63diw3aemd.pdf"
   xmlns:inkscape="http://www.inkscape.org/namespaces/inkscape"
   xmlns:sodipodi="http://sodipodi.sourceforge.net/DTD/sodipodi-0.dtd"
   xmlns="http://www.w3.org/2000/svg"
   xmlns:svg="http://www.w3.org/2000/svg">
  <defs
     id="defs1">
    <clipPath
       clipPathUnits="userSpaceOnUse"
       id="clipPath3">
      <path
         d="M 0,0 H 1215.84 V 396.72 H 0 Z"
         transform="translate(-19.071,-14.049998)"
         id="path3" />
    </clipPath>
    <clipPath
       clipPathUnits="userSpaceOnUse"
       id="clipPath6">
      <path
         d="M 0,396.72 H 1218 V 0 H 0 Z"
         transform="translate(-410.29801,-79.650999)"
         id="path6" />
    </clipPath>
    <clipPath
       clipPathUnits="userSpaceOnUse"
       id="clipPath8">
      <path
         d="M 0,396.72 H 1218 V 0 H 0 Z"
         transform="translate(-806.884,-55.851001)"
         id="path8" />
    </clipPath>
    <clipPath
       clipPathUnits="userSpaceOnUse"
       id="clipPath10">
      <path
         d="M 0,396.72 H 1218 V 0 H 0 Z"
         id="path10" />
    </clipPath>
    <clipPath
       clipPathUnits="userSpaceOnUse"
       id="clipPath12">
      <path
         d="M 0,396.72 H 1218 V 0 H 0 Z"
         transform="translate(-1120.458,-117.585)"
         id="path12" />
    </clipPath>
    <clipPath
       clipPathUnits="userSpaceOnUse"
       id="clipPath14">
      <path
         d="M 0,396.72 H 1218 V 0 H 0 Z"
         transform="translate(-1215.517,-396.50301)"
         id="path14" />
    </clipPath>
  </defs>
  <sodipodi:namedview
     id="namedview1"
     pagecolor="#ffffff"
     bordercolor="#000000"
     borderopacity="0.25"
     inkscape:showpageshadow="2"
     inkscape:pageopacity="0.0"
     inkscape:pagecheckerboard="0"
     inkscape:deskcolor="#d1d1d1">
    <inkscape:page
       x="0"
       y="0"
       inkscape:label="1"
       id="page1"
       width="1624"
       height="528.96002"
       margin="0 2.8800001 0 0"
       bleed="0" />
  </sodipodi:namedview>
  <g
     id="layer-MC0"
     inkscape:groupmode="layer"
     inkscape:label="图层 1">
    <path
       id="path1"
       d="m 316.282,35.769 h 14.134 v 98.032 H 316.282 Z M 279.54,0.96 h 14.43 v 71.551 h -14.43 z m -76.758,0 h 14.431 v 71.551 h -14.431 z"
       style="fill:#2a66af;fill-opacity:1;fill-rule:nonzero;stroke:none"
       transform="matrix(1.3333333,0,0,-1.3333333,0,528.96)" />
    <path
       id="path2"
       d="M 0,0 H 126.145 V 33.918 H 0.149 L 0.149,0 Z M -14.73,-13.09 V 47.156 H 140.723 V -1.34 c 0,-6.395 -5.207,-11.75 -11.754,-11.75 z m 0,80.625 v 12.941 h 70.363 v 26.184 h -74.824 v 13.09 h 74.824 v 9.519 h 14.875 v -9.519 h 74.824 V 106.66 H 70.508 V 80.476 h 70.363 V 67.535 Z M 222.09,-13.09 v 91.484 h -40.758 v 12.645 h 40.758 v 24.398 h -40.758 v 12.344 h 95.797 V 115.437 H 236.223 V 91.039 h 40.906 V 78.394 H 236.223 V -13.09 Z m 75.121,0 v 12.941 h 35.11 v 127.93 H 346.45 V -1.34 c 0,-6.395 -5.203,-11.75 -11.75,-11.75 z"
       style="fill:#2a66af;fill-opacity:1;fill-rule:nonzero;stroke:none"
       transform="matrix(1.3333333,0,0,-1.3333333,25.428,510.22667)"
       clip-path="url(#clipPath3)" />
    <path
       id="path4"
       d="m 0,0 -6.991,-11.898 h -37.634 v -13.094 h 29.899 l -24.394,-41.5 v -10.414 h 73.782 v -29.008 h -81.517 v -13.089 h 81.517 v -23.355 h 14.132 v 23.355 h 71.7 v 13.089 h -71.7 v 29.008 H 107.7 v 13.091 H 48.794 v 19.34 H 34.662 v -19.34 h -55.337 l 22.758,38.823 h 110.825 v 13.094 H 9.822 L 16.814,0 Z"
       style="fill:#2a66af;fill-opacity:1;fill-rule:nonzero;stroke:none"
       transform="matrix(1.3333333,0,0,-1.3333333,863.8128,337.8684)" />
    <path
       id="path5"
       d="M 0,0 -8.031,22.762 H 7.141 L 15.172,0 Z m 141.766,-78.691 c -6.399,0 -11.754,5.207 -11.754,11.75 v 49.539 H 36.594 V -5.8 h 95.8 c 6.395,0 11.75,-5.207 11.75,-11.75 v -47.903 h 16.809 v -13.09 H 141.766 Z M 40.016,23.356 H 146.824 V 12.496 H 40.016 Z m 0.148,18.148 c -1.488,0 -2.977,0.742 -3.867,1.934 -0.895,1.191 -1.192,2.676 -0.742,4.164 l 4.461,16.066 h 15.32 L 52.363,53.403 H 153.367 V 41.504 Z M -14.281,-78.691 1.043,-20.082 H 16.215 L 1.043,-78.691 Z M -3.273,40.91 -11.305,63.668 H 3.867 L 11.902,40.91 Z"
       style="fill:#2a66af;fill-opacity:1;fill-rule:nonzero;stroke:none"
       transform="matrix(1.3333333,0,0,-1.3333333,547.064,422.75867)"
       clip-path="url(#clipPath6)" />
    <path
       id="path7"
       d="M 0,0 H 13.387 V 86.128 L -2.086,85.98 -10.859,59.652 H 0 Z M 160.656,-24.247 V -11.75 H 84.492 v 7.734 H 69.766 V -11.75 H -6.547 V -24.247 H 15.172 L -6.399,-54.594 h 16.661 l 21.57,30.347 h 37.934 v -30.644 h 14.726 v 30.644 h 38.082 l 21.57,-30.347 h 16.512 l -21.57,30.347 z M 98.324,24.695 h 58.461 v 9.816 H 98.324 v 12.645 h 58.461 v 9.816 H 98.324 V 69.32 h 58.461 V 79.882 H 98.324 V 85.98 H 84.492 V 79.882 H 25.883 V 69.32 H 84.492 V 56.972 H 25.883 V 47.156 H 84.492 V 34.511 H 25.883 V 24.695 H 84.492 V 12.347 H 25.883 V 1.339 H 156.785 V 12.347 H 98.324 Z"
       style="fill:#2a66af;fill-opacity:1;fill-rule:nonzero;stroke:none"
       transform="matrix(1.3333333,0,0,-1.3333333,1075.8453,454.492)"
       clip-path="url(#clipPath8)" />
    <path
       id="path9"
       d="m 1019.603,128.89 h 133.882 V 15.241 H 1019.603 Z M 1163.005,6.909 c 3.125,3.125 4.609,6.844 4.609,11.156 V 142.128 H 1005.47 V 2.151 h 146.23 c 4.461,0 8.18,1.485 11.305,4.758"
       style="fill:#2a66af;fill-opacity:1;fill-rule:nonzero;stroke:none"
       transform="matrix(1.3333333,0,0,-1.3333333,0,528.96)"
       clip-path="url(#clipPath10)" />
    <path
       id="path11"
       d="m 0,0 h -14.129 v -11.902 h -71.554 v -13.09 h 33.324 l -29.305,-62.922 h 16.063 l 29.156,62.922 h 22.316 v -49.832 h -21.57 v -13.09 h 22.016 c 7.585,0 13.683,6.098 13.683,13.683 v 49.239 h 16.516 v 13.09 l -16.516,0 z"
       style="fill:#2a66af;fill-opacity:1;fill-rule:nonzero;stroke:none"
       transform="matrix(1.3333333,0,0,-1.3333333,1493.944,372.18)"
       clip-path="url(#clipPath12)" />
    <path
       id="path13"
       d="M 0,0 H -52.364 L -135.817,-83.453 -219.418,0 h -52.36 l 116.473,-116.328 v -67.09 h 38.828 v 67.09 z m -665.535,-153.965 c 0,-16.211 13.089,-29.453 29.453,-29.453 h 197.992 v 36.742 h -188.473 v 36.598 h 185.5 v 36.742 h -185.5 v 36.742 H -438.09 V 0.148 h -227.445 z m -266.723,0 c 0,-16.211 13.094,-29.453 29.457,-29.453 h 198.141 v 36.742 h -188.622 v 36.598 h 185.497 v 36.742 h -185.497 v 36.742 H -704.66 V 0.148 h -227.598 z m -205.281,43.887 h 127.187 v -36.598 h -166.312 v 110.082 h 204.839 V 0.148 h -212.722 c -17.106,0 -30.942,-13.836 -30.942,-30.941 v -121.684 c 0,-17.105 13.836,-30.941 30.942,-30.941 h 213.316 v 110.082 h -166.308 z M -359.992,0 h -38.973 v -150.988 c 0,-17.852 14.578,-32.43 32.43,-32.43 h 172.109 v 36.742 h -165.566 z"
       style="fill:#2a66af;fill-opacity:1;fill-rule:nonzero;stroke:none"
       transform="matrix(1.3333333,0,0,-1.3333333,1620.6893,0.28933333)"
       clip-path="url(#clipPath14)" />
  </g>
</svg>
