<?xml version="1.0" encoding="UTF-8" standalone="no"?>
<!-- Created with Inkscape (http://www.inkscape.org/) -->

<svg
   version="1.1"
   id="svg1"
   width="227.68668"
   height="72.631737"
   viewBox="0 0 227.68668 72.631737"
   sodipodi:docname="upload_ykrc7tibedmcjegzk7ymdhweax.pdf"
   xmlns:inkscape="http://www.inkscape.org/namespaces/inkscape"
   xmlns:sodipodi="http://sodipodi.sourceforge.net/DTD/sodipodi-0.dtd"
   xmlns="http://www.w3.org/2000/svg"
   xmlns:svg="http://www.w3.org/2000/svg">
  <defs
     id="defs1">
    <clipPath
       clipPathUnits="userSpaceOnUse"
       id="clipPath2">
      <path
         d="M 0,54.474 H 170.765 V 0 H 0 Z"
         transform="translate(-67.628902,-3.4356003)"
         id="path2" />
    </clipPath>
    <clipPath
       clipPathUnits="userSpaceOnUse"
       id="clipPath4">
      <path
         d="M 0,54.474 H 170.765 V 0 H 0 Z"
         transform="translate(-73.927302,-4.8469999)"
         id="path4" />
    </clipPath>
    <clipPath
       clipPathUnits="userSpaceOnUse"
       id="clipPath6">
      <path
         d="M 0,54.474 H 170.765 V 0 H 0 Z"
         transform="translate(-85.423202,-5.8960999)"
         id="path6" />
    </clipPath>
    <clipPath
       clipPathUnits="userSpaceOnUse"
       id="clipPath8">
      <path
         d="M 0,54.474 H 170.765 V 0 H 0 Z"
         transform="translate(-89.246005,-5.1174004)"
         id="path8" />
    </clipPath>
    <clipPath
       clipPathUnits="userSpaceOnUse"
       id="clipPath10">
      <path
         d="M 0,54.474 H 170.765 V 0 H 0 Z"
         transform="translate(-123.5292,-3.4014003)"
         id="path10" />
    </clipPath>
    <clipPath
       clipPathUnits="userSpaceOnUse"
       id="clipPath12">
      <path
         d="M 0,54.474 H 170.765 V 0 H 0 Z"
         transform="translate(-128.9229,-3.3904001)"
         id="path12" />
    </clipPath>
    <clipPath
       clipPathUnits="userSpaceOnUse"
       id="clipPath14">
      <path
         d="M 0,54.474 H 170.765 V 0 H 0 Z"
         transform="translate(-133.02441,-2.5432001)"
         id="path14" />
    </clipPath>
    <clipPath
       clipPathUnits="userSpaceOnUse"
       id="clipPath16">
      <path
         d="M 0,54.474 H 170.765 V 0 H 0 Z"
         transform="translate(-144.1639,-7.8150004)"
         id="path16" />
    </clipPath>
    <clipPath
       clipPathUnits="userSpaceOnUse"
       id="clipPath18">
      <path
         d="M 0,54.474 H 170.765 V 0 H 0 Z"
         transform="translate(-150.9832,-4.0438999)"
         id="path18" />
    </clipPath>
    <clipPath
       clipPathUnits="userSpaceOnUse"
       id="clipPath20">
      <path
         d="M 0,54.474 H 170.765 V 0 H 0 Z"
         transform="translate(-155.0914,-3.4014003)"
         id="path20" />
    </clipPath>
    <clipPath
       clipPathUnits="userSpaceOnUse"
       id="clipPath22">
      <path
         d="M 0,54.474 H 170.765 V 0 H 0 Z"
         transform="translate(-160.3714,-3.4014003)"
         id="path22" />
    </clipPath>
    <clipPath
       clipPathUnits="userSpaceOnUse"
       id="clipPath24">
      <path
         d="M 0,54.474 H 170.765 V 0 H 0 Z"
         transform="translate(-164.94711,-2.5432001)"
         id="path24" />
    </clipPath>
    <clipPath
       clipPathUnits="userSpaceOnUse"
       id="clipPath26">
      <path
         d="M 0,54.474 H 170.765 V 0 H 0 Z"
         transform="translate(-107.5504,-4.8469999)"
         id="path26" />
    </clipPath>
    <clipPath
       clipPathUnits="userSpaceOnUse"
       id="clipPath28">
      <path
         d="M 0,54.474 H 170.765 V 0 H 0 Z"
         transform="translate(-118.9887,-2.1484001)"
         id="path28" />
    </clipPath>
    <clipPath
       clipPathUnits="userSpaceOnUse"
       id="clipPath30">
      <path
         d="M 0,54.474 H 170.765 V 0 H 0 Z"
         transform="translate(-100.28541,-2.1484001)"
         id="path30" />
    </clipPath>
    <clipPath
       clipPathUnits="userSpaceOnUse"
       id="clipPath32">
      <path
         d="M 0,54.474 H 170.765 V 0 H 0 Z"
         transform="translate(-106.1914,-22.6463)"
         id="path32" />
    </clipPath>
    <clipPath
       clipPathUnits="userSpaceOnUse"
       id="clipPath34">
      <path
         d="M 0,54.474 H 170.765 V 0 H 0 Z"
         transform="translate(-37.700101,-43.167301)"
         id="path34" />
    </clipPath>
    <clipPath
       clipPathUnits="userSpaceOnUse"
       id="clipPath36">
      <path
         d="M 0,54.474 H 170.765 V 0 H 0 Z"
         transform="translate(-27.236901,-53.095701)"
         id="path36" />
    </clipPath>
    <clipPath
       clipPathUnits="userSpaceOnUse"
       id="clipPath38">
      <path
         d="M 0,54.474 H 170.765 V 0 H 0 Z"
         transform="translate(-27.236901,-44.049701)"
         id="path38" />
    </clipPath>
    <clipPath
       clipPathUnits="userSpaceOnUse"
       id="clipPath40">
      <path
         d="M 0,54.474 H 170.765 V 0 H 0 Z"
         transform="translate(-47.109401,-27.2537)"
         id="path40" />
    </clipPath>
    <clipPath
       clipPathUnits="userSpaceOnUse"
       id="clipPath42">
      <path
         d="M 0,54.474 H 170.765 V 0 H 0 Z"
         transform="translate(-51.461302,-34.087001)"
         id="path42" />
    </clipPath>
    <clipPath
       clipPathUnits="userSpaceOnUse"
       id="clipPath44">
      <path
         d="M 0,54.474 H 170.765 V 0 H 0 Z"
         transform="translate(-51.174301,-20.726501)"
         id="path44" />
    </clipPath>
    <clipPath
       clipPathUnits="userSpaceOnUse"
       id="clipPath46">
      <path
         d="M 0,54.474 H 170.765 V 0 H 0 Z"
         transform="translate(-44.887501,-20.389201)"
         id="path46" />
    </clipPath>
    <clipPath
       clipPathUnits="userSpaceOnUse"
       id="clipPath48">
      <path
         d="M 0,54.474 H 170.765 V 0 H 0 Z"
         transform="translate(-7.0863002,-28.917101)"
         id="path48" />
    </clipPath>
    <clipPath
       clipPathUnits="userSpaceOnUse"
       id="clipPath50">
      <path
         d="M 0,54.474 H 170.765 V 0 H 0 Z"
         transform="translate(-2.6858001,-22.177901)"
         id="path50" />
    </clipPath>
    <clipPath
       clipPathUnits="userSpaceOnUse"
       id="clipPath52">
      <path
         d="M 0,54.474 H 170.765 V 0 H 0 Z"
         transform="translate(-11.7838,-38.216201)"
         id="path52" />
    </clipPath>
    <clipPath
       clipPathUnits="userSpaceOnUse"
       id="clipPath54">
      <path
         d="M 0,54.474 H 170.765 V 0 H 0 Z"
         transform="translate(-31.624601,-46.615401)"
         id="path54" />
    </clipPath>
    <clipPath
       clipPathUnits="userSpaceOnUse"
       id="clipPath56">
      <path
         d="M 0,54.474 H 170.765 V 0 H 0 Z"
         transform="translate(-45.178101,-40.332101)"
         id="path56" />
    </clipPath>
    <clipPath
       clipPathUnits="userSpaceOnUse"
       id="clipPath58">
      <path
         d="M 0,54.474 H 170.765 V 0 H 0 Z"
         transform="translate(-17.6523,-50.387301)"
         id="path58" />
    </clipPath>
    <clipPath
       clipPathUnits="userSpaceOnUse"
       id="clipPath60">
      <path
         d="M 0,54.474 H 170.765 V 0 H 0 Z"
         transform="translate(-23.7571,-46.010201)"
         id="path60" />
    </clipPath>
    <clipPath
       clipPathUnits="userSpaceOnUse"
       id="clipPath62">
      <path
         d="M 0,54.474 H 170.765 V 0 H 0 Z"
         transform="translate(-19.6431,-25.602701)"
         id="path62" />
    </clipPath>
    <clipPath
       clipPathUnits="userSpaceOnUse"
       id="clipPath64">
      <path
         d="M 0,54.474 H 170.765 V 0 H 0 Z"
         transform="translate(-36.530901,-32.718301)"
         id="path64" />
    </clipPath>
    <clipPath
       clipPathUnits="userSpaceOnUse"
       id="clipPath66">
      <path
         d="M 0,54.474 H 170.765 V 0 H 0 Z"
         transform="translate(-37.055001,-27.832801)"
         id="path66" />
    </clipPath>
    <clipPath
       clipPathUnits="userSpaceOnUse"
       id="clipPath68">
      <path
         d="M 0,54.474 H 170.765 V 0 H 0 Z"
         transform="translate(-36.727801,-20.569601)"
         id="path68" />
    </clipPath>
    <clipPath
       clipPathUnits="userSpaceOnUse"
       id="clipPath70">
      <path
         d="M 0,54.474 H 170.765 V 0 H 0 Z"
         transform="translate(-7.7190002,-36.485101)"
         id="path70" />
    </clipPath>
    <clipPath
       clipPathUnits="userSpaceOnUse"
       id="clipPath72">
      <path
         d="M 0,54.474 H 170.765 V 0 H 0 Z"
         transform="translate(-39.774301,-49.011801)"
         id="path72" />
    </clipPath>
    <clipPath
       clipPathUnits="userSpaceOnUse"
       id="clipPath74">
      <path
         d="M 0,54.474 H 170.765 V 0 H 0 Z"
         transform="translate(-10.9215,-17.473801)"
         id="path74" />
    </clipPath>
    <clipPath
       clipPathUnits="userSpaceOnUse"
       id="clipPath76">
      <path
         d="M 0,54.474 H 170.765 V 0 H 0 Z"
         transform="translate(-15.3853,-6.5773002)"
         id="path76" />
    </clipPath>
    <clipPath
       clipPathUnits="userSpaceOnUse"
       id="clipPath78">
      <path
         d="M 0,54.474 H 170.765 V 0 H 0 Z"
         transform="translate(-23.561701,-6.6714004)"
         id="path78" />
    </clipPath>
    <clipPath
       clipPathUnits="userSpaceOnUse"
       id="clipPath80">
      <path
         d="M 0,54.474 H 170.765 V 0 H 0 Z"
         transform="translate(-37.392301,-8.2774002)"
         id="path80" />
    </clipPath>
    <clipPath
       clipPathUnits="userSpaceOnUse"
       id="clipPath82">
      <path
         d="M 0,54.474 H 170.765 V 0 H 0 Z"
         transform="translate(-31.709001,-3.0490998)"
         id="path82" />
    </clipPath>
  </defs>
  <sodipodi:namedview
     id="namedview1"
     pagecolor="#ffffff"
     bordercolor="#000000"
     borderopacity="0.25"
     inkscape:showpageshadow="2"
     inkscape:pageopacity="0.0"
     inkscape:pagecheckerboard="0"
     inkscape:deskcolor="#d1d1d1">
    <inkscape:page
       x="0"
       y="0"
       inkscape:label="1"
       id="page1"
       width="227.68668"
       height="72.631737"
       margin="0"
       bleed="0" />
  </sodipodi:namedview>
  <g
     id="layer-MC0"
     inkscape:groupmode="layer"
     inkscape:label="图层 1">
    <path
       id="path1"
       d="M 0,0 C 0,-0.166 0.013,-0.305 0.039,-0.418 0.065,-0.531 0.116,-0.621 0.192,-0.689 0.267,-0.756 0.368,-0.805 0.496,-0.836 0.624,-0.866 0.79,-0.885 0.993,-0.892 V -1.287 H -2.02 v 0.395 c 0.189,0.007 0.341,0.026 0.458,0.056 0.116,0.031 0.208,0.077 0.277,0.141 0.067,0.065 0.112,0.151 0.135,0.26 0.022,0.109 0.033,0.243 0.033,0.401 v 5.271 c 0,0.159 -0.011,0.293 -0.033,0.401 -0.023,0.11 -0.068,0.196 -0.135,0.26 -0.069,0.064 -0.161,0.111 -0.277,0.141 -0.117,0.03 -0.269,0.049 -0.458,0.057 V 6.49 H 3.352 L 3.487,4.741 H 3.014 C 2.931,4.99 2.856,5.191 2.788,5.345 2.72,5.5 2.645,5.622 2.563,5.712 2.479,5.802 2.38,5.862 2.263,5.893 2.146,5.923 2.002,5.938 1.828,5.938 H 0 V 2.867 h 1.05 c 0.173,0 0.319,0.012 0.44,0.034 0.12,0.023 0.218,0.064 0.293,0.125 0.075,0.059 0.13,0.142 0.164,0.247 0.034,0.106 0.058,0.238 0.073,0.395 H 2.483 V 1.49 H 2.02 C 1.998,1.806 1.921,2.024 1.789,2.144 1.657,2.265 1.414,2.325 1.061,2.325 H 0 Z"
       style="fill:#293d9b;fill-opacity:1;fill-rule:nonzero;stroke:none"
       transform="matrix(1.3333333,0,0,-1.3333333,90.171867,68.050933)"
       clip-path="url(#clipPath2)" />
    <path
       id="path3"
       d="m 0,0 c 0,-1.951 1.259,-2.145 1.874,-2.145 0.774,0 1.727,0.58 1.727,2.019 V 3.826 C 3.601,3.985 3.59,4.118 3.567,4.227 3.545,4.336 3.497,4.423 3.426,4.486 3.355,4.551 3.257,4.597 3.132,4.627 3.008,4.657 2.845,4.677 2.642,4.684 V 5.079 H 5.17 V 4.684 C 4.997,4.677 4.858,4.657 4.753,4.627 4.648,4.597 4.564,4.551 4.504,4.486 4.444,4.423 4.405,4.336 4.385,4.227 4.367,4.118 4.358,3.985 4.358,3.826 V -0.17 c 0,-1.334 -0.836,-2.652 -2.642,-2.652 -1.201,0 -2.832,0.492 -2.832,2.751 v 3.897 c 0,0.159 -0.012,0.292 -0.034,0.401 -0.022,0.109 -0.065,0.196 -0.129,0.259 -0.065,0.065 -0.152,0.111 -0.26,0.141 -0.109,0.03 -0.251,0.05 -0.423,0.057 V 5.079 H 0.96 V 4.684 C 0.756,4.677 0.593,4.657 0.468,4.627 0.345,4.597 0.246,4.551 0.175,4.486 0.104,4.423 0.057,4.336 0.034,4.227 0.012,4.118 0,3.985 0,3.826 Z"
       style="fill:#293d9b;fill-opacity:1;fill-rule:nonzero;stroke:none"
       transform="matrix(1.3333333,0,0,-1.3333333,98.569733,66.169067)"
       clip-path="url(#clipPath4)" />
    <path
       id="path5"
       d="m 0,0 c 0,1.559 -0.622,3.5 -2.592,3.5 h -0.765 v -6.672 h 0.742 C -0.871,-3.172 0,-1.616 0,0 m -2.468,4.03 c 1.647,0 3.728,-0.903 3.728,-3.895 0,-3.194 -2.416,-3.883 -3.584,-3.883 h -3.085 v 0.395 c 0.187,0.008 0.34,0.027 0.456,0.057 0.117,0.03 0.21,0.077 0.277,0.141 0.068,0.064 0.113,0.15 0.135,0.26 0.023,0.109 0.035,0.243 0.035,0.4 v 5.272 c 0,0.159 -0.012,0.292 -0.035,0.401 -0.022,0.109 -0.067,0.196 -0.135,0.259 -0.067,0.065 -0.16,0.111 -0.277,0.141 -0.116,0.03 -0.269,0.05 -0.456,0.057 V 4.03 Z"
       style="fill:#293d9b;fill-opacity:1;fill-rule:nonzero;stroke:none"
       transform="matrix(1.3333333,0,0,-1.3333333,113.8976,64.770267)"
       clip-path="url(#clipPath6)" />
    <path
       id="path7"
       d="M 0,0 H 2.269 L 1.15,3.674 Z m 2.427,-0.542 h -2.596 l -0.373,-1.219 c -0.044,-0.158 -0.067,-0.29 -0.067,-0.395 0,-0.166 0.065,-0.273 0.197,-0.322 0.132,-0.049 0.34,-0.081 0.627,-0.096 v -0.395 h -2.417 v 0.395 c 0.137,0.007 0.251,0.028 0.344,0.062 0.095,0.034 0.177,0.086 0.25,0.158 0.071,0.072 0.137,0.167 0.197,0.288 0.061,0.12 0.121,0.275 0.181,0.463 l 2.076,6.412 h 1.07 L 3.971,-1.58 c 0.054,-0.159 0.104,-0.298 0.152,-0.418 0.049,-0.12 0.109,-0.221 0.176,-0.299 0.066,-0.079 0.15,-0.144 0.247,-0.192 0.1,-0.049 0.223,-0.078 0.374,-0.085 V -2.969 H 2.088 v 0.395 c 0.271,0.015 0.468,0.057 0.588,0.124 0.12,0.068 0.18,0.185 0.18,0.35 0,0.06 -0.006,0.123 -0.016,0.187 -0.012,0.063 -0.025,0.114 -0.041,0.152 z"
       style="fill:#293d9b;fill-opacity:1;fill-rule:nonzero;stroke:none"
       transform="matrix(1.3333333,0,0,-1.3333333,118.99467,65.808533)"
       clip-path="url(#clipPath8)" />
    <path
       id="path9"
       d="M 0,0 C 0,-0.158 0.01,-0.291 0.033,-0.401 0.057,-0.51 0.1,-0.596 0.17,-0.66 c 0.067,-0.065 0.159,-0.111 0.276,-0.141 0.115,-0.03 0.269,-0.05 0.457,-0.057 v -0.395 h -2.9 v 0.395 c 0.187,0.007 0.341,0.027 0.458,0.057 0.115,0.03 0.207,0.076 0.275,0.141 0.069,0.064 0.112,0.15 0.136,0.259 0.023,0.11 0.033,0.243 0.033,0.401 v 5.272 c 0,0.158 -0.01,0.292 -0.033,0.4 -0.024,0.11 -0.067,0.197 -0.136,0.26 -0.068,0.064 -0.16,0.111 -0.275,0.141 -0.117,0.03 -0.271,0.049 -0.458,0.057 v 0.395 h 2.9 V 6.13 C 0.715,6.122 0.561,6.103 0.446,6.073 0.329,6.043 0.237,5.996 0.17,5.932 0.1,5.869 0.057,5.782 0.033,5.672 0.01,5.564 0,5.43 0,5.272 Z"
       style="fill:#293d9b;fill-opacity:1;fill-rule:nonzero;stroke:none"
       transform="matrix(1.3333333,0,0,-1.3333333,164.7056,68.096533)"
       clip-path="url(#clipPath10)" />
    <path
       id="path11"
       d="m 0,0 1.661,5.328 c 0.023,0.083 0.04,0.153 0.05,0.208 0.013,0.057 0.017,0.123 0.017,0.198 0,0.151 -0.06,0.252 -0.186,0.305 C 1.419,6.091 1.22,6.126 0.95,6.141 V 6.536 H 3.344 V 6.141 C 3.207,6.118 3.093,6.091 3,6.062 2.905,6.031 2.823,5.983 2.751,5.915 2.679,5.847 2.612,5.753 2.552,5.632 2.492,5.512 2.432,5.358 2.372,5.17 L 0.329,-1.242 h -1.115 l -2.02,6.389 c -0.054,0.166 -0.105,0.309 -0.157,0.429 -0.054,0.121 -0.114,0.221 -0.18,0.299 -0.07,0.08 -0.152,0.14 -0.251,0.181 -0.097,0.041 -0.217,0.07 -0.36,0.085 v 0.395 h 2.852 V 6.141 C -1.172,6.126 -1.367,6.086 -1.487,6.022 -1.608,5.958 -1.668,5.84 -1.668,5.667 c 0,-0.076 0.017,-0.188 0.055,-0.339 z"
       style="fill:#293d9b;fill-opacity:1;fill-rule:nonzero;stroke:none"
       transform="matrix(1.3333333,0,0,-1.3333333,171.8972,68.1112)"
       clip-path="url(#clipPath12)" />
    <path
       id="path13"
       d="M 0,0 C 0.189,0.008 0.341,0.027 0.457,0.057 0.574,0.087 0.666,0.134 0.735,0.198 0.801,0.262 0.848,0.348 0.87,0.457 0.891,0.567 0.905,0.7 0.905,0.858 V 6.13 C 0.905,6.288 0.891,6.422 0.87,6.53 0.848,6.64 0.801,6.727 0.735,6.79 0.666,6.854 0.574,6.901 0.457,6.931 0.341,6.961 0.189,6.98 0,6.988 V 7.383 H 5.372 L 5.485,5.69 H 5.011 C 4.95,5.9 4.889,6.079 4.829,6.226 4.769,6.373 4.701,6.491 4.621,6.581 4.541,6.671 4.447,6.736 4.339,6.773 4.23,6.811 4.091,6.83 3.926,6.83 H 2.042 V 3.94 h 1.05 c 0.173,0 0.32,0.011 0.44,0.034 0.12,0.022 0.217,0.064 0.294,0.124 0.073,0.06 0.129,0.143 0.164,0.248 0.033,0.106 0.056,0.237 0.072,0.396 H 4.524 V 2.597 H 4.062 C 4.04,2.905 3.963,3.116 3.829,3.229 3.699,3.342 3.456,3.398 3.102,3.398 H 2.042 V 0.159 h 1.896 c 0.219,0 0.396,0.018 0.536,0.056 0.14,0.037 0.252,0.106 0.339,0.203 0.085,0.098 0.152,0.231 0.198,0.401 0.044,0.169 0.077,0.385 0.1,0.649 h 0.508 v -1.863 l -5.619,0 z"
       style="fill:#293d9b;fill-opacity:1;fill-rule:nonzero;stroke:none"
       transform="matrix(1.3333333,0,0,-1.3333333,177.36587,69.2408)"
       clip-path="url(#clipPath14)" />
    <path
       id="path15"
       d="M 0,0 C 0,0.919 -0.719,1.558 -1.638,1.558 H -2.496 V -1.58 h 0.813 C -0.639,-1.58 0,-0.883 0,0 m 1.073,-4.617 c 0.06,-0.106 0.117,-0.196 0.169,-0.271 0.052,-0.075 0.115,-0.141 0.185,-0.197 0.072,-0.057 0.157,-0.1 0.254,-0.13 0.098,-0.03 0.224,-0.049 0.374,-0.057 V -5.667 H 0.212 c -0.257,0.497 -1.205,2.315 -1.446,2.699 -0.317,0.489 -0.651,0.926 -1.262,0.982 v -2.45 c 0,-0.302 0.06,-0.514 0.177,-0.638 0.117,-0.124 0.351,-0.19 0.705,-0.198 v -0.395 h -2.922 v 0.395 c 0.187,0.008 0.341,0.027 0.458,0.057 0.117,0.03 0.208,0.077 0.277,0.141 0.067,0.064 0.112,0.15 0.133,0.26 0.024,0.109 0.036,0.243 0.036,0.4 v 5.272 c 0,0.159 -0.012,0.292 -0.036,0.401 -0.021,0.109 -0.066,0.196 -0.133,0.259 -0.069,0.065 -0.16,0.111 -0.277,0.141 -0.117,0.03 -0.271,0.05 -0.458,0.057 v 0.395 h 3.107 c 1.718,0 2.613,-0.833 2.613,-2.099 0,-1.618 -1.903,-1.989 -2.438,-1.989 0,0 0.702,-0.171 1.164,-0.777 0.145,-0.192 0.327,-0.454 0.529,-0.796 0.204,-0.343 0.414,-0.699 0.634,-1.067"
       style="fill:#293d9b;fill-opacity:1;fill-rule:nonzero;stroke:none"
       transform="matrix(1.3333333,0,0,-1.3333333,192.21853,62.211733)"
       clip-path="url(#clipPath16)" />
    <path
       id="path17"
       d="m 0,0 c 0,0.241 -0.042,0.81 -0.801,1.259 -0.331,0.197 -1.436,0.492 -1.436,0.492 -0.571,0.174 -1.005,0.42 -1.302,0.74 -0.297,0.319 -0.534,0.776 -0.534,1.326 0,0.323 0.058,0.619 0.175,0.886 0.117,0.267 0.282,0.499 0.496,0.694 0.215,0.195 0.551,0.351 0.863,0.46 0.312,0.109 0.679,0.161 1.07,0.161 0.558,0 1.003,-0.06 1.339,-0.181 C 0.204,5.717 0.469,5.585 0.664,5.442 V 4.234 h -0.733 c -0.038,0.188 -0.086,0.359 -0.146,0.514 -0.061,0.154 -0.152,0.286 -0.273,0.395 -0.12,0.109 -0.27,0.194 -0.45,0.254 -0.18,0.06 -0.406,0.09 -0.678,0.09 -0.451,0 -0.805,-0.117 -1.06,-0.35 C -2.931,4.904 -3.06,4.624 -3.06,4.21 -3.06,4 -3.035,3.8 -2.982,3.658 -2.928,3.515 -2.848,3.39 -2.738,3.285 -2.629,3.18 -2.487,3.089 -2.315,3.014 -2.142,2.939 -1.935,2.885 -1.695,2.81 l 0.79,-0.28 C -0.634,2.447 -0.332,2.307 -0.097,2.19 0.574,1.861 0.833,1.43 0.928,1.197 1.022,0.963 1.105,0.718 1.112,0.417 1.132,-0.399 0.851,-0.966 0.374,-1.387 -0.104,-1.809 -0.908,-2.019 -1.82,-2.019 c -0.292,0 -0.559,0.02 -0.801,0.062 -0.24,0.041 -0.457,0.092 -0.648,0.152 -0.192,0.06 -0.36,0.126 -0.502,0.197 -0.142,0.072 -0.264,0.142 -0.362,0.209 v 1.4 h 0.779 c 0.039,-0.248 0.09,-0.467 0.159,-0.655 0.067,-0.188 0.165,-0.344 0.294,-0.468 0.126,-0.124 0.29,-0.217 0.49,-0.277 0.199,-0.06 0.449,-0.09 0.752,-0.09 0.3,0 0.557,0.038 0.771,0.113 0.215,0.075 0.387,0.178 0.514,0.31 0.129,0.132 0.224,0.287 0.284,0.463 C -0.03,-0.426 0,-0.21 0,0"
       style="fill:#293d9b;fill-opacity:1;fill-rule:nonzero;stroke:none"
       transform="matrix(1.3333333,0,0,-1.3333333,201.31093,67.239867)"
       clip-path="url(#clipPath18)" />
    <path
       id="path19"
       d="m 0,0 c 0,-0.158 0.012,-0.291 0.033,-0.401 0.022,-0.109 0.069,-0.195 0.136,-0.259 0.068,-0.065 0.16,-0.111 0.277,-0.141 0.117,-0.03 0.268,-0.05 0.457,-0.057 v -0.395 h -2.921 v 0.395 c 0.187,0.007 0.34,0.027 0.457,0.057 0.115,0.03 0.207,0.076 0.276,0.141 0.068,0.064 0.111,0.15 0.135,0.259 0.023,0.11 0.033,0.243 0.033,0.401 v 5.272 c 0,0.158 -0.01,0.292 -0.033,0.4 -0.024,0.11 -0.067,0.197 -0.135,0.26 -0.069,0.064 -0.161,0.111 -0.276,0.141 -0.117,0.03 -0.27,0.049 -0.457,0.057 V 6.525 H 0.903 V 6.13 C 0.714,6.122 0.563,6.103 0.446,6.073 0.329,6.043 0.237,5.996 0.169,5.932 0.102,5.869 0.055,5.782 0.033,5.672 0.012,5.564 0,5.43 0,5.272 Z"
       style="fill:#293d9b;fill-opacity:1;fill-rule:nonzero;stroke:none"
       transform="matrix(1.3333333,0,0,-1.3333333,206.78853,68.096533)"
       clip-path="url(#clipPath20)" />
    <path
       id="path21"
       d="m 0,0 c 0,-0.18 0.017,-0.326 0.052,-0.434 0.035,-0.109 0.09,-0.195 0.168,-0.255 0.081,-0.06 0.186,-0.101 0.318,-0.124 0.13,-0.023 0.29,-0.038 0.48,-0.045 V -1.253 H -2.13 v 0.395 c 0.187,0.007 0.347,0.022 0.479,0.045 0.132,0.023 0.237,0.064 0.316,0.124 0.08,0.06 0.137,0.146 0.17,0.255 0.033,0.108 0.05,0.254 0.05,0.434 V 5.972 H -1.93 C -2.117,5.972 -2.27,5.951 -2.387,5.909 -2.504,5.869 -2.597,5.801 -2.668,5.706 -2.741,5.612 -2.793,5.488 -2.828,5.333 -2.861,5.18 -2.888,4.986 -2.911,4.752 H -3.442 V 6.525 H 2.17 L 2.26,4.752 H 1.73 C 1.684,4.993 1.639,5.193 1.594,5.351 1.549,5.509 1.489,5.633 1.414,5.723 1.339,5.813 1.245,5.878 1.137,5.915 1.028,5.953 0.891,5.972 0.725,5.972 H 0 Z"
       style="fill:#293d9b;fill-opacity:1;fill-rule:nonzero;stroke:none"
       transform="matrix(1.3333333,0,0,-1.3333333,213.82853,68.096533)"
       clip-path="url(#clipPath22)" />
    <path
       id="path23"
       d="m 0,0 c 0.195,0.008 0.356,0.027 0.479,0.057 0.125,0.03 0.224,0.077 0.294,0.141 0.072,0.064 0.12,0.15 0.147,0.259 0.027,0.11 0.04,0.243 0.04,0.401 v 1.863 l -1.683,3.341 c -0.09,0.181 -0.173,0.327 -0.254,0.441 -0.078,0.113 -0.16,0.203 -0.242,0.27 C -1.302,6.841 -1.387,6.89 -1.477,6.92 -1.568,6.95 -1.671,6.973 -1.784,6.988 V 7.383 H 0.947 V 6.988 C 0.73,6.98 0.574,6.95 0.484,6.898 0.394,6.845 0.349,6.763 0.349,6.649 0.349,6.574 0.362,6.495 0.389,6.412 0.416,6.329 0.454,6.232 0.506,6.119 L 1.761,3.587 3.002,6.142 c 0.09,0.202 0.135,0.364 0.135,0.484 0,0.128 -0.057,0.217 -0.17,0.266 C 2.855,6.941 2.689,6.973 2.471,6.988 V 7.383 H 4.718 V 6.988 C 4.604,6.973 4.502,6.949 4.412,6.914 4.322,6.881 4.235,6.826 4.152,6.751 4.07,6.676 3.988,6.574 3.905,6.446 3.821,6.318 3.728,6.149 3.622,5.938 L 2.075,2.789 V 0.858 C 2.075,0.7 2.088,0.567 2.115,0.457 2.142,0.348 2.19,0.262 2.262,0.198 2.334,0.134 2.432,0.087 2.556,0.057 2.679,0.027 2.84,0.008 3.037,0 V -0.395 H 0 Z"
       style="fill:#293d9b;fill-opacity:1;fill-rule:nonzero;stroke:none"
       transform="matrix(1.3333333,0,0,-1.3333333,219.92947,69.2408)"
       clip-path="url(#clipPath24)" />
    <path
       id="path25"
       d="m 0,0 c 0,-1.951 1.259,-2.145 1.875,-2.145 0.773,0 1.727,0.58 1.727,2.019 V 3.826 C 3.602,3.985 3.589,4.118 3.567,4.227 3.546,4.336 3.499,4.423 3.425,4.486 3.355,4.551 3.258,4.597 3.133,4.627 3.008,4.657 2.844,4.677 2.641,4.684 v 0.395 h 2.53 V 4.684 C 4.998,4.677 4.858,4.657 4.754,4.627 4.647,4.597 4.564,4.551 4.504,4.486 4.444,4.423 4.404,4.336 4.387,4.227 4.367,4.118 4.357,3.985 4.357,3.826 V -0.17 c 0,-1.334 -0.835,-2.652 -2.641,-2.652 -1.202,0 -2.831,0.492 -2.831,2.751 v 3.897 c 0,0.159 -0.012,0.292 -0.034,0.401 -0.023,0.109 -0.066,0.196 -0.13,0.259 -0.063,0.065 -0.15,0.111 -0.26,0.141 -0.11,0.03 -0.251,0.05 -0.424,0.057 V 5.079 H 0.96 V 4.684 C 0.758,4.677 0.594,4.657 0.469,4.627 0.344,4.597 0.247,4.551 0.175,4.486 0.103,4.423 0.057,4.336 0.033,4.227 0.012,4.118 0,3.985 0,3.826 Z"
       style="fill:#293d9b;fill-opacity:1;fill-rule:nonzero;stroke:none"
       transform="matrix(1.3333333,0,0,-1.3333333,143.40053,66.169067)"
       clip-path="url(#clipPath26)" />
    <path
       id="path27"
       d="M 0,0 -3.703,5.925 V 1.253 c 0,-0.158 0.012,-0.291 0.034,-0.401 0.023,-0.109 0.068,-0.195 0.137,-0.259 0.066,-0.065 0.16,-0.111 0.277,-0.141 0.115,-0.03 0.267,-0.05 0.457,-0.057 V 0 h -2.564 v 0.395 c 0.189,0.007 0.341,0.027 0.457,0.057 0.117,0.03 0.209,0.076 0.277,0.141 0.067,0.064 0.114,0.15 0.136,0.259 0.021,0.11 0.033,0.243 0.033,0.401 v 5.272 c 0,0.158 -0.012,0.292 -0.033,0.4 -0.022,0.11 -0.069,0.197 -0.136,0.26 -0.068,0.064 -0.16,0.111 -0.277,0.141 -0.116,0.03 -0.268,0.049 -0.457,0.057 v 0.395 h 1.83 L 0.047,2.123 v 4.402 c 0,0.158 -0.014,0.292 -0.035,0.4 -0.022,0.11 -0.069,0.197 -0.136,0.26 -0.066,0.064 -0.16,0.111 -0.277,0.141 -0.117,0.03 -0.268,0.049 -0.457,0.057 V 7.778 H 1.616 V 7.383 C 1.442,7.375 1.302,7.356 1.197,7.326 1.092,7.296 1.008,7.249 0.948,7.185 0.888,7.122 0.848,7.035 0.831,6.925 0.811,6.817 0.801,6.683 0.801,6.525 V 0 Z"
       style="fill:#293d9b;fill-opacity:1;fill-rule:nonzero;stroke:none"
       transform="matrix(1.3333333,0,0,-1.3333333,158.6516,69.7672)"
       clip-path="url(#clipPath28)" />
    <path
       id="path29"
       d="M 0,0 -3.703,5.925 V 1.253 c 0,-0.158 0.014,-0.291 0.034,-0.401 0.023,-0.109 0.07,-0.195 0.137,-0.259 0.066,-0.065 0.16,-0.111 0.277,-0.141 0.117,-0.03 0.267,-0.05 0.457,-0.057 V 0 h -2.564 v 0.395 c 0.189,0.007 0.341,0.027 0.457,0.057 0.117,0.03 0.211,0.076 0.277,0.141 0.067,0.064 0.114,0.15 0.136,0.259 0.021,0.11 0.035,0.243 0.035,0.401 v 5.272 c 0,0.158 -0.014,0.292 -0.035,0.4 -0.022,0.11 -0.069,0.197 -0.136,0.26 -0.066,0.064 -0.16,0.111 -0.277,0.141 -0.116,0.03 -0.268,0.049 -0.457,0.057 v 0.395 h 1.83 L 0.047,2.123 v 4.402 c 0,0.158 -0.014,0.292 -0.035,0.4 -0.022,0.11 -0.069,0.197 -0.136,0.26 -0.066,0.064 -0.16,0.111 -0.277,0.141 -0.117,0.03 -0.269,0.049 -0.457,0.057 V 7.778 H 1.616 V 7.383 C 1.442,7.375 1.302,7.356 1.198,7.326 1.092,7.296 1.008,7.249 0.948,7.185 0.888,7.122 0.848,7.035 0.831,6.925 0.811,6.817 0.801,6.683 0.801,6.525 V 0 Z"
       style="fill:#293d9b;fill-opacity:1;fill-rule:nonzero;stroke:none"
       transform="matrix(1.3333333,0,0,-1.3333333,133.71387,69.7672)"
       clip-path="url(#clipPath30)" />
    <path
       id="path31"
       d="M 0,0 C 1.325,0.064 2.521,0.709 3.723,1.214 4.404,1.126 5.073,0.96 5.692,0.655 5.794,0.346 5.893,0.036 5.996,-0.275 5.283,-0.901 4.337,-1.078 3.449,-1.318 3.375,-1.188 3.229,-0.927 3.155,-0.797 1.87,-1.199 0.554,-1.506 -0.733,-1.9 c -0.819,-0.198 -1.509,-0.716 -2.185,-1.196 -0.501,-0.637 -0.734,-1.507 -1.471,-1.943 -0.739,-0.563 -1.766,-0.143 -2.282,0.519 -0.258,0.549 -0.574,1.079 -0.764,1.655 0.03,0.36 0.103,0.715 0.163,1.072 0.419,0.036 0.84,0.055 1.254,0.129 C -3.99,-1.188 -2.031,-0.458 0,0 m 45.019,6.775 c 0.479,1.217 0.666,2.602 1.659,3.54 C 46.772,9.869 46.908,9.432 46.965,8.98 46.852,8.572 46.638,8.201 46.509,7.797 46.444,7.237 46.488,6.67 46.494,6.105 46.271,5.834 45.997,5.611 45.67,5.479 45.444,5.908 45.226,6.338 45.019,6.775 M 3.923,16.847 C 4.537,17.154 5.215,16.869 5.856,16.808 6.096,16.514 6.33,16.216 6.557,15.907 6.177,14.372 5.088,13.145 4.659,11.629 4.269,10.404 3.91,9.17 3.472,7.962 3.237,7.363 3.239,6.712 3.138,6.086 2.978,5.094 2.819,4.101 2.661,3.106 2.411,2.95 2.16,2.793 1.913,2.63 1.556,2.925 1.149,3.194 0.945,3.626 0.698,4.111 0.456,4.626 -0.067,4.866 -0.528,4.518 -0.97,4.143 -1.461,3.838 c -0.576,0.796 0.015,1.697 0.287,2.484 -0.16,1.243 -1.168,2.418 -0.665,3.695 0.186,0.368 0.532,0.632 0.781,0.956 0.35,-0.202 0.721,-0.376 1.041,-0.626 C 0.559,9.63 1.058,8.802 1.18,7.872 1.29,7.203 1.394,6.53 1.512,5.862 c 0.101,0.03 0.299,0.09 0.401,0.119 0.434,2.028 1.049,4.013 1.486,6.04 0.18,0.632 0.295,1.283 0.529,1.898 0.316,0.589 0.726,1.143 0.823,1.822 C 3.885,15.843 3.082,15.435 2.341,15.043 1.763,14.712 1.098,14.533 0.589,14.087 -0.414,13.254 -1.431,12.437 -2.422,11.589 -2.921,11.204 -3.143,10.595 -3.519,10.108 -3.456,9.312 -3.035,8.627 -2.733,7.912 -2.474,6.805 -2.18,5.519 -2.841,4.5 -3.011,4.132 -3.258,3.813 -3.522,3.511 c -0.331,0.714 -0.86,1.41 -0.761,2.24 0.075,1.165 -0.221,2.304 -0.381,3.449 0.454,0.983 0.432,2.096 0.736,3.125 0.366,0.303 0.636,0.704 1.017,0.988 1.327,0.744 2.621,1.546 3.941,2.303 0.973,0.385 1.915,0.856 2.893,1.231 m 46.731,1.037 c 0.475,-0.156 0.86,-0.473 1.182,-0.849 -0.177,-0.427 -0.34,-0.86 -0.467,-1.305 -0.204,-0.107 -0.404,-0.215 -0.606,-0.325 -0.137,0.232 -0.275,0.461 -0.412,0.691 0.101,0.596 0.202,1.192 0.303,1.788 M 24.386,16.067 c 0.457,1.815 -0.054,3.724 0.47,5.532 0.942,-0.184 1.793,-0.783 2.077,-1.733 -0.364,-2.315 -0.978,-4.583 -1.352,-6.898 -0.464,-2.089 -0.863,-4.193 -1.284,-6.292 0.79,0.508 1.628,0.938 2.402,1.468 0.187,0.182 0.291,0.43 0.431,0.646 -0.167,0.551 -0.287,1.147 0.174,1.591 0.764,-0.004 1.529,-0.002 2.293,-0.004 0.238,-0.253 0.645,-0.485 0.441,-0.892 -0.11,-0.997 -1.072,-1.461 -1.773,-2.014 -1.258,-0.81 -2.581,-1.519 -3.843,-2.33 0.391,-0.885 0.925,-1.694 1.346,-2.564 0.624,-1.419 1.813,-2.459 2.794,-3.628 0.878,-0.618 1.775,-1.22 2.698,-1.779 0.586,-0.253 1.145,-0.571 1.636,-0.983 -0.805,-0.564 -1.793,-0.705 -2.694,-1.052 -0.578,-0.217 -1.212,-0.243 -1.82,-0.221 -1.292,0.397 -2.314,1.436 -2.764,2.704 -0.735,2.233 -1.299,4.513 -2.017,6.75 -0.4,-1.114 -0.841,-2.214 -1.205,-3.34 -0.574,-0.844 -1.135,-1.704 -1.726,-2.537 -0.933,-1.305 -2.464,-2.07 -4.033,-2.277 -0.414,0.061 -0.828,0.155 -1.222,0.301 -0.363,0.168 -0.478,0.586 -0.665,0.902 0.743,0.125 1.503,0.18 2.241,0.351 1.303,0.503 2.534,1.358 3.201,2.619 0.56,1.151 1.433,2.166 1.598,3.478 C 21,3.654 20.414,3.066 19.79,2.578 19.069,1.811 18.566,0.684 17.418,0.486 c -0.394,0.692 -0.501,1.493 -0.641,2.263 0.437,-0.106 0.875,-0.208 1.312,-0.304 1.222,0.928 2.307,2.05 3.671,2.779 0.659,0.332 0.893,1.088 1.057,1.753 0.58,3.021 0.993,6.068 1.569,9.09 m 33.266,-5.194 c -0.197,-0.362 -0.404,-0.722 -0.599,-1.084 1.387,0.062 2.698,0.533 4.008,0.961 0.494,0.129 0.771,0.595 1.125,0.925 -1.546,0.092 -3.135,-0.106 -4.534,-0.802 m -0.856,1.631 c -0.266,-0.522 0.593,-0.011 0,0 m -3.865,1.098 c -0.333,-0.432 -0.604,-0.924 -1.025,-1.283 -0.874,-0.127 -1.833,0.011 -2.484,0.654 0.007,-0.799 0,-1.598 0.004,-2.399 1.609,0.478 3.245,0.865 4.863,1.317 -0.276,0.158 -0.553,0.317 -0.829,0.476 0.051,0.352 0.099,0.703 0.147,1.054 -0.227,0.061 -0.452,0.12 -0.676,0.181 m 3.636,3.571 c -0.514,-0.995 -0.975,-2.05 -0.906,-3.197 0.145,-0.083 0.295,-0.169 0.445,-0.253 0.077,0.587 0.099,1.183 0.234,1.759 0.157,0.546 0.539,1.124 0.227,1.691 m 0.885,5.823 c 0.34,-0.287 0.684,-0.564 1.038,-0.833 -0.606,-1.178 -1.756,-1.861 -2.798,-2.608 0.234,-0.301 0.471,-0.597 0.712,-0.889 0.467,0.108 0.934,0.207 1.405,0.298 0.157,-0.379 0.316,-0.758 0.478,-1.134 -0.434,-0.872 -0.711,-1.805 -0.947,-2.748 0.192,-0.202 0.387,-0.408 0.583,-0.61 1.282,2.249 2.509,4.527 3.792,6.775 -0.811,-0.141 -1.631,-0.188 -2.447,-0.274 -0.097,0.637 0.721,0.818 1.125,1.154 0.731,-0.022 1.683,0.293 2.216,-0.368 0.135,-0.155 0.255,-0.322 0.38,-0.488 -0.365,-1.526 -1.414,-2.732 -2.155,-4.079 -0.574,-0.868 -1.092,-1.772 -1.651,-2.646 -0.319,-0.659 -0.549,-1.358 -0.866,-2.018 0.718,-0.026 1.439,-0.107 2.16,-0.09 0.798,0.145 1.562,0.452 2.377,0.514 0.594,0.127 1.115,-0.287 1.649,-0.48 0.022,-0.266 0.045,-0.531 0.07,-0.797 C 63.25,10.868 62.079,9.741 60.533,9.364 58.701,9.053 56.884,8.645 55.055,8.299 54.289,8.127 53.452,7.872 53.032,7.148 54.2,7.203 55.352,7.888 56.514,7.469 56.731,7.098 56.944,6.722 57.151,6.343 56.906,6.017 56.704,5.658 56.46,5.332 55.829,4.72 55.033,4.32 54.255,3.925 c 0.574,-0.248 1.19,-0.028 1.785,0 1.005,0.056 2.003,0.202 3.004,0.307 C 59.5,3.983 59.949,3.723 60.378,3.428 60.52,2.941 60.662,2.453 60.804,1.966 60.61,1.567 60.328,1.224 59.949,0.989 58.577,1.454 57.125,1.315 55.699,1.319 55.088,1.264 54.511,1.032 53.913,0.891 c -0.524,-1.299 -0.352,-2.712 -0.447,-4.078 -0.077,-1.198 0.644,-2.542 -0.239,-3.586 -0.533,-0.073 -1.074,-0.319 -1.606,-0.141 -0.816,0.2 -1.658,0.323 -2.452,0.605 -0.989,0.708 -2.077,1.359 -2.721,2.428 1.088,-0.549 2.153,-1.179 3.332,-1.522 0.567,-0.205 1.16,0.024 1.731,0.099 0.152,0.395 0.342,0.779 0.459,1.188 0.177,1.483 -0.064,3.012 0.334,4.466 -0.057,0.07 -0.172,0.208 -0.231,0.278 -1.629,-0.112 -3.168,-0.71 -4.577,-1.514 -0.761,-0.491 -1.686,-0.516 -2.534,-0.759 -0.79,-0.134 -1.446,0.459 -1.936,0.999 -0.222,0.387 -0.376,0.809 -0.568,1.212 0.748,0.679 1.806,0.546 2.721,0.774 1.763,0.46 3.514,0.96 5.265,1.472 0.638,0.207 1.469,0.175 1.873,0.796 0.578,0.852 1.633,1.288 1.998,2.296 -0.935,0.032 -1.824,-0.332 -2.736,-0.487 -0.37,0.313 -0.437,0.798 -0.544,1.242 0.372,0.396 0.736,0.803 1.135,1.173 0.735,0.651 1.675,0.977 2.554,1.378 0.581,0.231 0.628,0.923 0.728,1.448 -1.232,0.215 -2.481,-0.193 -3.574,-0.741 -0.793,-0.394 -1.624,-0.701 -2.429,-1.076 -0.404,0.122 -0.766,0.34 -1.102,0.594 0.107,1.436 0.416,2.875 0.247,4.32 -0.085,0.603 0.057,1.197 0.181,1.784 0.097,-0.054 0.29,-0.159 0.387,-0.212 0.227,-0.353 0.491,-0.679 0.761,-1.001 0.361,0.11 0.733,0.193 1.075,0.353 0.247,0.251 0.409,0.57 0.631,0.841 0.698,0.606 1.521,1.054 2.401,1.334 0.282,0.289 0.551,0.59 0.811,0.899 -0.033,0.223 -0.065,0.447 -0.093,0.67 -0.566,-0.127 -1.022,-0.485 -1.418,-0.889 -0.088,0.901 -0.449,1.822 -0.101,2.712 0.387,-0.137 0.781,-0.257 1.178,-0.368 1.055,0.998 2.447,1.726 3.045,3.118 m -6.107,-0.022 c 0.394,-0.298 0.897,-0.489 1.212,-0.872 0.071,-0.528 0.214,-1.167 -0.207,-1.588 -0.858,-0.796 -1.714,-1.593 -2.545,-2.414 -0.099,0.223 -0.199,0.445 -0.296,0.668 0.499,0.809 0.91,1.667 1.376,2.495 0.227,0.546 0.312,1.14 0.46,1.711 M -23.362,-3.421 c 0.155,-0.147 0.313,-0.292 0.474,-0.433 0.284,-0.05 0.573,0.035 0.856,0.052 0.108,0.207 0.216,0.414 0.325,0.621 -0.43,0.228 -0.896,0.374 -1.365,0.497 -0.096,-0.244 -0.194,-0.49 -0.29,-0.737 m 0.16,10.801 c -0.184,-0.229 -0.149,-0.53 -0.185,-0.803 0.348,0.008 0.654,0.19 0.875,0.45 0.611,0.576 0.422,1.497 0.575,2.242 -0.409,-0.639 -0.834,-1.266 -1.265,-1.889 m -0.68,14.973 c 1.784,1.387 3.633,2.69 5.401,4.097 0.609,-0.132 1.177,-0.416 1.614,-0.865 -1.342,-1.961 -3.526,-3.072 -5.14,-4.766 -0.921,-1.217 -1.932,-2.366 -2.834,-3.597 -0.808,-1.395 -1.532,-2.839 -2.297,-4.259 -0.217,-0.314 -0.22,-0.694 -0.221,-1.063 0.856,1.227 1.652,2.495 2.501,3.728 1.076,1.835 2.655,3.513 4.744,4.142 0.563,-0.352 1.074,-0.808 1.404,-1.388 -0.06,-2.12 -1.038,-4.047 -1.638,-6.046 -0.895,-2.369 -0.903,-4.953 -1.516,-7.392 -0.389,-0.713 -0.496,-1.663 -1.3,-2.049 -0.399,0.611 -1.014,0.991 -1.726,1.127 -0.434,-0.627 -0.931,-1.213 -1.315,-1.872 -0.317,-0.805 -0.639,-1.643 -0.564,-2.527 1.117,0.691 2.24,1.371 3.349,2.074 0.77,0.371 1.573,0.673 2.35,1.03 0.604,0.284 1.489,0.301 1.859,-0.354 0.723,-0.694 0.578,-1.738 0.605,-2.648 -0.391,-0.965 -0.955,-1.875 -1.117,-2.921 0.948,-1.006 1.854,-2.075 3.048,-2.805 0.088,-0.365 0.199,-0.736 0.137,-1.118 -0.237,-0.027 -0.472,-0.053 -0.708,-0.082 -0.556,0.376 -1.242,0.601 -1.644,1.165 -0.474,0.635 -1.135,1.085 -1.783,1.525 -0.347,-0.672 -0.871,-1.234 -1.535,-1.604 -0.866,0.596 -1.69,1.258 -2.357,2.078 -0.241,0.384 -0.346,0.834 -0.507,1.255 0.206,0.512 0.489,0.989 0.844,1.41 0.888,-0.241 1.77,-0.502 2.659,-0.741 0.464,0.352 1.023,0.691 1.213,1.275 0.244,0.733 0.538,1.445 0.825,2.164 -0.441,0.046 -0.885,0.211 -1.322,0.156 -0.9,-0.39 -1.808,-0.777 -2.625,-1.321 -0.712,-0.475 -1.553,-0.771 -2.152,-1.403 -0.659,-0.651 -1.341,-1.283 -1.992,-1.943 -0.704,-0.901 -1.395,-1.816 -2.06,-2.745 -0.395,-0.775 -0.775,-1.557 -1.214,-2.307 -0.474,0.197 -1.101,0.411 -1.199,0.988 0.272,0.751 0.661,1.454 0.957,2.194 0.254,0.709 0.921,1.153 1.272,1.808 0.22,0.422 0.458,0.833 0.665,1.261 0.311,0.646 0.334,1.39 0.675,2.023 0.578,0.975 1.177,1.937 1.734,2.921 0.405,1.11 0.957,2.167 1.283,3.303 -0.036,1.192 -0.243,2.386 -0.043,3.577 -0.053,0.848 0.446,1.548 0.835,2.254 0.193,0.339 0.632,0.37 0.96,0.5 0.621,-0.903 1.34,-1.73 2.021,-2.588 -0.249,0.999 0.24,1.929 0.422,2.891 0.394,1.647 1.118,3.237 1.075,4.962 -0.346,-0.027 -0.724,0.066 -1.032,-0.125 -0.63,-0.348 -1.324,-0.639 -1.776,-1.226 -0.549,-0.712 -1.233,-1.318 -1.738,-2.064 -0.843,-1.831 -1.665,-3.686 -2.132,-5.656 -0.751,-2.125 -1.14,-4.382 -2.198,-6.39 -0.207,-0.235 -0.531,-0.328 -0.794,-0.491 -0.23,0.172 -0.46,0.344 -0.692,0.513 -0.209,0.776 -0.709,1.587 -0.386,2.4 0.77,2.219 1.469,4.462 2.239,6.679 1.095,2.005 2.18,4.012 3.267,6.019 1.601,2.045 3.234,4.07 4.823,6.126 -1.374,-1.074 -2.505,-2.432 -3.82,-3.576 -0.656,-0.352 -1.426,-0.514 -1.988,-1.031 -0.729,-0.648 -1.438,-1.321 -2.191,-1.942 -0.307,0.382 -0.683,0.741 -0.829,1.222 -0.253,1.003 -0.152,2.106 0.34,3.022 0.514,1.247 1.123,2.451 1.624,3.704 0.15,0.478 0.55,0.783 0.919,1.086 0.277,-0.157 0.567,-0.294 0.821,-0.489 0.353,-0.448 0.544,-0.992 0.742,-1.518 -0.257,-0.989 -0.573,-1.965 -0.751,-2.973 0.728,0.248 1.287,0.781 1.909,1.206 m -7.097,7.45 c 0.499,-0.375 1.134,-0.682 1.339,-1.319 0.437,-0.86 0.527,-1.831 0.573,-2.78 -0.469,-1.618 -1.554,-2.94 -2.384,-4.38 -0.866,-1.342 -1.672,-2.725 -2.549,-4.059 -0.265,-0.355 -0.273,-0.81 -0.372,-1.226 0.67,0.168 1.28,-0.173 1.906,-0.345 0.218,-0.421 0.414,-0.855 0.651,-1.266 -0.048,-0.768 -0.38,-1.474 -0.78,-2.117 -0.806,-1.5 -1.587,-3.015 -2.404,-4.51 -0.252,-0.521 -0.343,-1.099 -0.515,-1.647 0.227,-0.453 0.546,-0.86 0.748,-1.324 0.156,-0.754 0.346,-1.518 0.272,-2.296 -0.185,-3.64 -0.309,-7.286 -0.515,-10.923 -0.288,-0.588 -0.417,-1.476 -1.195,-1.58 -0.757,0.333 -1.167,1.08 -1.408,1.831 -0.132,1.542 0.554,2.983 0.659,4.502 0.155,1.336 -0.075,2.679 -0.091,4.02 0.033,0.466 -0.22,0.86 -0.438,1.247 -0.216,-0.066 -0.431,-0.13 -0.649,-0.196 -0.644,-0.993 -1.331,-1.956 -1.982,-2.943 -0.257,0.068 -0.518,0.12 -0.767,0.209 -0.099,0.284 -0.24,0.618 -0.036,0.889 1.124,2.137 2.287,4.252 3.433,6.377 0.635,1.25 1.391,2.442 1.94,3.733 0.347,1.209 1.032,2.342 0.95,3.64 -0.672,-0.036 -1.065,-0.666 -1.636,-0.943 -0.382,0.303 -0.762,0.609 -1.14,0.918 0.24,0.702 0.366,1.458 0.778,2.092 1.065,1.791 2.125,3.587 3.201,5.373 0.794,1.47 1.991,2.835 2.016,4.592 -0.105,1.078 -0.253,2.15 -0.369,3.228 0.248,0.405 0.499,0.809 0.764,1.203"
       style="fill:#293d9b;fill-opacity:1;fill-rule:nonzero;stroke:none"
       transform="matrix(1.3333333,0,0,-1.3333333,141.58853,42.436667)"
       clip-path="url(#clipPath32)" />
    <path
       id="path33"
       d="M 0,0 C -0.229,0.191 -0.279,0.349 -0.187,0.477 0,0.738 0.386,0.333 0.665,0.667 L 3.364,3.899 C 3.648,4.238 3.186,4.531 3.411,4.784 3.515,4.903 3.67,4.893 3.899,4.702 L 6.732,2.336 C 7.096,2.032 7.1,1.755 6.641,1.184 6.531,1.048 6.378,0.945 6.274,1.051 6.17,1.158 6.22,1.332 6.164,1.629 6.122,1.853 6.063,2.021 5.809,2.233 L 4.923,2.972 C 4.698,3.161 4.361,3.129 4.172,2.902 L 3.208,1.749 4.437,0.722 C 4.719,0.486 5.057,0.803 5.229,0.659 5.369,0.543 5.134,0.203 4.91,-0.066 4.61,-0.425 4.321,-0.724 4.183,-0.601 4.007,-0.447 4.305,-0.088 3.973,0.19 L 2.756,1.207 1.792,0.053 C 1.603,-0.174 1.632,-0.511 1.856,-0.698 l 1.001,-0.837 c 0.26,-0.216 0.495,-0.224 0.714,-0.199 0.276,0.032 0.442,0.1 0.567,0.035 C 4.31,-1.789 4.249,-1.956 4.151,-2.058 3.643,-2.597 3.338,-2.789 3.002,-2.507 Z"
       style="fill:#293d9b;fill-opacity:1;fill-rule:nonzero;stroke:none"
       transform="matrix(1.3333333,0,0,-1.3333333,50.2668,15.075333)"
       clip-path="url(#clipPath34)" />
    <path
       id="path35"
       d="m 0,0 c -14.259,0 -25.859,-11.601 -25.859,-25.86 0,-14.257 11.6,-25.858 25.859,-25.858 14.259,0 25.859,11.601 25.859,25.858 C 25.859,-11.601 14.259,0 0,0 m 0,-53.096 c -15.018,0 -27.237,12.218 -27.237,27.236 0,15.019 12.219,27.238 27.237,27.238 15.018,0 27.237,-12.219 27.237,-27.238 0,-15.018 -12.219,-27.236 -27.237,-27.236"
       style="fill:#293d9b;fill-opacity:1;fill-rule:nonzero;stroke:none"
       transform="matrix(1.3333333,0,0,-1.3333333,36.315867,1.8374667)"
       clip-path="url(#clipPath36)" />
    <path
       id="path37"
       d="m 0,0 c -9.271,0 -16.814,-7.542 -16.814,-16.814 0,-9.269 7.543,-16.812 16.814,-16.812 9.271,0 16.813,7.543 16.813,16.812 C 16.813,-7.542 9.271,0 0,0 m 0,-35.004 c -10.031,0 -18.192,8.16 -18.192,18.19 0,10.031 8.161,18.192 18.192,18.192 10.03,0 18.191,-8.161 18.191,-18.192 0,-10.03 -8.161,-18.19 -18.191,-18.19"
       style="fill:#293d9b;fill-opacity:1;fill-rule:nonzero;stroke:none"
       transform="matrix(1.3333333,0,0,-1.3333333,36.315867,13.8988)"
       clip-path="url(#clipPath38)" />
    <path
       id="path39"
       d="m 0,0 c -0.442,-0.018 -0.332,-0.478 -0.598,-0.517 -0.157,-0.022 -0.254,0.1 -0.267,0.398 L -0.926,1.37 c -0.012,0.284 0.058,0.405 0.217,0.394 0.256,-0.019 0.214,-0.49 0.656,-0.472 L 4.244,1.471 C 4.686,1.489 4.6,1.974 4.91,2.014 5.071,2.034 5.166,1.898 5.177,1.6 L 5.239,0.115 C 5.252,-0.182 5.157,-0.29 5.006,-0.284 4.692,-0.271 4.739,0.197 4.298,0.179 Z"
       style="fill:#293d9b;fill-opacity:1;fill-rule:nonzero;stroke:none"
       transform="matrix(1.3333333,0,0,-1.3333333,62.812533,36.293467)"
       clip-path="url(#clipPath40)" />
    <path
       id="path41"
       d="M 0,0 C 0.16,-0.591 0.119,-0.994 0.096,-1.295 0.081,-1.496 0.019,-1.717 0.224,-1.841 0.518,-2.022 0.38,-2.262 0.133,-2.398 c -0.196,-0.108 -0.655,-0.331 -1.148,-0.483 -0.152,-0.047 -0.318,-0.055 -0.374,0.109 -0.092,0.27 0.291,0.423 0.599,1.033 0.223,0.441 0.295,0.942 0.122,1.505 -0.193,0.633 -0.597,0.906 -1.055,0.681 -1.041,-0.513 0.528,-3.535 -1.718,-4.205 -1.192,-0.355 -2.206,0.224 -2.617,1.738 -0.137,0.503 -0.117,1.047 -0.046,1.476 0.043,0.26 -0.279,0.259 -0.325,0.477 -0.037,0.176 0.151,0.346 0.355,0.5 0.355,0.27 0.888,0.555 1.195,0.672 0.33,0.127 0.505,0.062 0.56,-0.138 0.112,-0.408 -1.259,-1.194 -0.981,-2.657 0.162,-0.851 0.607,-1.178 1.176,-1.024 1.294,0.349 -0.445,3.489 1.694,4.297 C -1.421,1.963 -0.371,1.376 0,0"
       style="fill:#293d9b;fill-opacity:1;fill-rule:nonzero;stroke:none"
       transform="matrix(1.3333333,0,0,-1.3333333,68.615067,27.1824)"
       clip-path="url(#clipPath42)" />
    <path
       id="path43"
       d="M 0,0 C 0.198,0.013 0.32,0.124 0.356,0.316 L 1.135,4.454 C 1.172,4.646 1.098,4.792 0.918,4.877 0.739,4.961 0.2,5.116 0.02,5.15 -0.119,5.176 -0.255,5.152 -0.303,4.994 -0.408,4.652 0.401,4.18 0.31,3.698 L 0.265,3.454 C 0.23,3.274 0.057,3.155 -0.124,3.188 L -4.287,3.973 C -4.721,4.055 -4.564,4.515 -4.8,4.591 -4.95,4.641 -5.06,4.565 -5.11,4.296 L -5.405,2.734 C -5.452,2.478 -5.381,2.353 -5.223,2.346 -4.987,2.335 -4.955,2.818 -4.52,2.735 L -0.357,1.951 C -0.176,1.917 -0.058,1.744 -0.092,1.563 L -0.138,1.32 C -0.229,0.838 -1.154,0.693 -1.181,0.335 -1.194,0.17 -1.075,0.098 -0.936,0.073 -0.755,0.038 -0.198,-0.012 0,0"
       style="fill:#293d9b;fill-opacity:1;fill-rule:nonzero;stroke:none"
       transform="matrix(1.3333333,0,0,-1.3333333,68.2324,44.9964)"
       clip-path="url(#clipPath44)" />
    <path
       id="path45"
       d="M 0,0 C 0.119,0.273 0.236,0.311 0.382,0.249 0.71,0.104 0.326,-0.233 0.731,-0.41 l 1.473,-0.643 3.143,0.447 c 0,0 0.254,0.052 0.381,0.119 0.274,0.142 0.414,0.283 0.569,0.241 0.152,-0.041 0.172,-0.205 0.118,-0.326 L 5.652,-2.319 C 5.58,-2.486 5.436,-2.541 5.31,-2.459 5.183,-2.376 5.22,-2.151 5.08,-1.989 4.977,-1.87 4.792,-1.909 4.792,-1.909 L 2.628,-2.216 3.947,-4.031 c 0,0 0.111,-0.157 0.236,-0.137 0.17,0.026 0.356,0.365 0.555,0.338 0.118,-0.016 0.193,-0.14 0.107,-0.337 L 4.248,-5.535 C 4.184,-5.68 4.057,-5.772 3.934,-5.663 3.807,-5.551 3.848,-5.295 3.727,-4.978 3.642,-4.758 3.564,-4.663 3.564,-4.663 L 1.7,-2.207 0.227,-1.563 c -0.406,0.177 -0.392,-0.335 -0.721,-0.191 -0.145,0.063 -0.196,0.176 -0.077,0.449 z"
       style="fill:#293d9b;fill-opacity:1;fill-rule:nonzero;stroke:none"
       transform="matrix(1.3333333,0,0,-1.3333333,59.85,45.446133)"
       clip-path="url(#clipPath46)" />
    <path
       id="path47"
       d="m 0,0 c 0.273,-0.035 0.523,0.157 0.558,0.428 0,0 0.019,0.145 0.058,0.453 C 0.709,1.609 0.174,2.486 -1.45,2.694 -2.984,2.89 -3.842,2.371 -3.951,1.522 -3.99,1.213 -4.016,1.013 -4.016,1.013 -4.05,0.742 -3.856,0.494 -3.582,0.459 Z m -3.909,-0.751 c -0.466,0.059 -0.536,-0.434 -0.855,-0.386 -0.135,0.022 -0.237,0.15 -0.2,0.438 l 0.275,2.145 c 0.268,2.096 1.648,2.792 3.335,2.576 C 0.472,3.788 1.612,2.557 1.379,0.738 L 1.096,-1.476 C 1.057,-1.771 0.933,-1.853 0.805,-1.848 0.482,-1.833 0.581,-1.326 0.142,-1.27 Z"
       style="fill:#293d9b;fill-opacity:1;fill-rule:nonzero;stroke:none"
       transform="matrix(1.3333333,0,0,-1.3333333,9.4484,34.0756)"
       clip-path="url(#clipPath48)" />
    <path
       id="path49"
       d="M 0,0 C -0.034,0.204 0.049,0.348 0.193,0.36 0.494,0.384 0.574,-0.053 0.929,0.008 1.196,0.053 2.85,0.336 3.91,0.516 4.717,0.654 5.355,1.046 5.169,2.13 5.016,3.03 4.23,3.331 3.426,3.194 2.819,3.091 0.558,2.704 0.514,2.697 0.428,2.683 0.277,2.641 0.208,2.517 0.104,2.333 0.064,2.101 -0.096,2.048 -0.244,2 -0.358,2.096 -0.38,2.227 L -0.603,3.535 C -0.639,3.747 -0.552,3.828 -0.419,3.843 -0.261,3.86 -0.173,3.655 0.045,3.524 0.139,3.467 0.292,3.503 0.387,3.519 0.528,3.543 2.272,3.841 3.229,4.005 4.366,4.198 5.66,3.94 5.977,2.083 6.277,0.328 5.317,-0.608 4.047,-0.824 2.97,-1.008 1.409,-1.275 1.155,-1.318 0.768,-1.384 0.867,-1.873 0.584,-1.931 0.433,-1.961 0.316,-1.85 0.28,-1.638 Z"
       style="fill:#293d9b;fill-opacity:1;fill-rule:nonzero;stroke:none"
       transform="matrix(1.3333333,0,0,-1.3333333,3.5810667,43.0612)"
       clip-path="url(#clipPath50)" />
    <path
       id="path51"
       d="m 0,0 c -0.218,-0.248 -0.358,-0.25 -0.45,-0.133 -0.148,0.189 0.28,0.614 -0.052,0.905 L -3.758,3.63 C -4.09,3.922 -4.38,3.361 -4.664,3.567 -4.785,3.655 -4.776,3.819 -4.667,3.944 l 0.682,0.775 c 0.352,0.401 0.587,0.438 1.1,0.37 C -2.151,4.99 0.937,4.626 0.937,4.626 l -2.13,1.87 c -0.332,0.292 -0.681,-0.198 -0.926,-0.031 -0.119,0.08 -0.133,0.229 0.064,0.453 l 0.82,0.934 C -1.09,8.017 -0.941,8.026 -0.847,7.898 -0.692,7.685 -1.053,7.326 -0.72,7.034 L 2.835,3.912 C 3.103,3.677 3.105,3.427 2.936,3.218 2.842,3.101 2.672,3.021 2.416,3.051 L -2.819,3.759 -0.028,1.308 C 0.305,1.016 0.616,1.471 0.836,1.322 0.952,1.243 0.954,1.087 0.766,0.873 Z"
       style="fill:#293d9b;fill-opacity:1;fill-rule:nonzero;stroke:none"
       transform="matrix(1.3333333,0,0,-1.3333333,15.711733,21.6768)"
       clip-path="url(#clipPath52)" />
    <path
       id="path53"
       d="M 0,0 C -0.073,-0.436 0.396,-0.49 0.382,-0.727 0.373,-0.885 0.249,-0.958 -0.045,-0.909 l -1.484,0.252 c -0.288,0.049 -0.383,0.159 -0.346,0.312 0.061,0.251 0.526,0.126 0.6,0.561 l 0.718,4.229 c 0.073,0.435 -0.399,0.474 -0.379,0.747 0.01,0.145 0.146,0.222 0.429,0.173 L 0.975,5.114 C 1.262,5.065 1.364,4.957 1.32,4.802 1.239,4.52 0.791,4.664 0.717,4.229 Z"
       style="fill:#293d9b;fill-opacity:1;fill-rule:nonzero;stroke:none"
       transform="matrix(1.3333333,0,0,-1.3333333,42.166133,10.477867)"
       clip-path="url(#clipPath54)" />
    <path
       id="path55"
       d="M 0,0 C 0,0 0.263,-0.409 0.427,-0.663 0.837,-1.3 1.454,-1.64 2.182,-1.171 2.687,-0.846 2.854,-0.306 2.294,0.563 1.985,1.042 1.724,1.109 1.429,0.92 Z m -3.449,-0.627 c -0.162,0.25 -0.137,0.384 0.004,0.456 0.199,0.101 0.415,-0.284 0.772,-0.054 L 0.903,2.078 C 1.275,2.318 0.978,2.709 1.26,2.88 1.397,2.963 1.55,2.893 1.711,2.643 L 3.192,0.344 c 0.636,-0.988 0.633,-2.14 -0.358,-2.721 -0.747,-0.438 -1.518,-0.152 -2.059,0.24 0,0 -0.853,-1.544 -1.008,-1.834 -0.205,-0.386 0.056,-0.759 -0.182,-0.944 -0.098,-0.076 -0.237,-0.054 -0.324,0.08 l -1.047,1.627 c -0.064,0.098 -0.072,0.27 0.067,0.327 0.18,0.073 0.317,-0.169 0.502,-0.145 0.143,0.02 0.217,0.149 0.265,0.237 0.053,0.099 0.877,1.604 0.877,1.604 l -0.518,0.803 -1.399,-0.902 c -0.372,-0.239 -0.08,-0.567 -0.269,-0.724 -0.114,-0.095 -0.256,-0.066 -0.417,0.184 z"
       style="fill:#293d9b;fill-opacity:1;fill-rule:nonzero;stroke:none"
       transform="matrix(1.3333333,0,0,-1.3333333,60.237467,18.8556)"
       clip-path="url(#clipPath56)" />
    <path
       id="path57"
       d="M 0,0 C 0.195,0.07 0.352,0.014 0.389,-0.125 0.466,-0.418 0.05,-0.574 0.173,-0.913 c 0.092,-0.255 0.664,-1.833 1.031,-2.844 0.278,-0.768 0.765,-1.294 1.799,-0.92 0.858,0.312 1.028,1.105 0.75,1.873 C 3.542,-2.225 2.762,-0.069 2.746,-0.027 2.716,0.055 2.649,0.196 2.515,0.243 2.315,0.313 2.08,0.311 2,0.458 1.925,0.595 2,0.724 2.124,0.77 L 3.372,1.222 C 3.574,1.295 3.67,1.223 3.709,1.095 3.754,0.943 3.566,0.819 3.476,0.581 3.437,0.479 3.5,0.335 3.532,0.244 3.581,0.11 4.183,-1.553 4.515,-2.467 4.908,-3.551 4.883,-4.87 3.111,-5.512 1.437,-6.118 0.347,-5.34 -0.092,-4.129 c -0.372,1.027 -0.911,2.516 -0.999,2.758 -0.134,0.369 -0.598,0.186 -0.704,0.454 -0.057,0.142 0.031,0.278 0.233,0.351 z"
       style="fill:#293d9b;fill-opacity:1;fill-rule:nonzero;stroke:none"
       transform="matrix(1.3333333,0,0,-1.3333333,23.5364,5.4486667)"
       clip-path="url(#clipPath58)" />
    <path
       id="path59"
       d="m 0,0 c -0.331,-0.012 -0.427,0.089 -0.406,0.235 0.035,0.237 0.638,0.219 0.621,0.661 L 0.053,5.224 C 0.036,5.666 -0.571,5.491 -0.616,5.839 -0.636,5.988 -0.51,6.093 -0.345,6.1 L 0.687,6.138 C 1.219,6.158 1.409,6.013 1.711,5.594 2.145,4.993 4.004,2.499 4.004,2.499 L 3.897,5.332 C 3.88,5.774 3.285,5.691 3.238,5.984 3.214,6.125 3.313,6.237 3.61,6.248 L 4.854,6.295 C 5.072,6.303 5.182,6.201 5.152,6.044 5.105,5.785 4.596,5.801 4.612,5.359 L 4.79,0.63 C 4.804,0.275 4.623,0.101 4.354,0.079 4.205,0.068 4.031,0.137 3.876,0.342 L 0.791,4.632 0.931,0.918 C 0.947,0.477 1.492,0.563 1.534,0.301 1.557,0.163 1.445,0.054 1.16,0.043 Z"
       style="fill:#293d9b;fill-opacity:1;fill-rule:nonzero;stroke:none"
       transform="matrix(1.3333333,0,0,-1.3333333,31.676133,11.2848)"
       clip-path="url(#clipPath60)" />
    <path
       id="path61"
       d="m 0,0 c -0.321,-0.241 -0.73,-0.321 -1.123,-0.334 -0.941,-0.122 -1.815,-0.07 -2.698,0.303 -0.707,0.473 -0.847,1.114 -0.952,1.916 1.927,0.256 3.687,0.677 5.617,0.247 C 0.868,1.319 0.714,0.537 0,0 m -4.116,6.447 c 0.648,0.513 1.388,0.616 2.187,0.642 0.532,-0.052 1.07,-0.057 1.598,-0.148 C 0.138,6.876 0.506,6.558 0.672,6.131 0.9,5.551 0.897,5.151 0.841,4.54 -1.134,4.455 -2.991,4.278 -4.967,4.312 c 0.006,0.865 0.159,1.539 0.851,2.135 m 21.738,6.533 c -0.847,0.069 -2.14,0.128 -2.987,0.054 -2.771,-0.089 -4.005,-0.56 -6.768,-0.739 -0.411,0.004 -0.603,0.529 -0.501,0.941 0.26,0.906 0.66,1.28 0.776,2.225 C 8.238,15.994 7.978,16.537 7.58,16.882 6.793,17.373 5.55,16.9 5.379,15.961 5.162,15.083 5.008,14.662 4.53,13.882 3.837,12.791 2.88,11.908 2.07,10.91 1.894,10.676 1.664,10.452 1.647,10.141 1.703,9.588 2.259,9.128 2.817,9.23 3.774,9.357 4.592,9.933 5.286,10.571 5.423,10.474 5.601,10.412 5.7,10.273 4.965,9.209 3.945,8.353 3.286,7.227 3.13,6.946 3.03,6.625 2.785,6.403 2.665,7.277 2.56,8.246 1.711,8.736 0.158,9.639 -2.756,9.79 -4.756,8.983 -5.192,8.807 -5.49,8.638 -5.874,8.35 -6.377,7.973 -6.606,7.384 -6.772,6.882 -7.321,4.938 -7.505,2.996 -7.222,1.001 c 0.206,-1.575 1.369,-2.967 2.863,-3.493 0.906,-0.323 1.886,-0.192 2.827,-0.17 1.345,0.044 2.674,0.327 3.66,1.315 0.811,0.892 0.926,2.148 1.048,3.291 0.052,0.918 0.79,1.649 1.123,2.472 C 4.596,5.118 4.95,5.959 5.256,6.212 5.562,6.466 5.761,6.08 5.646,5.939 4.333,3.209 4.009,-0.552 3.993,-3.54 c -1.6,0.1 -3.184,0.026 -4.781,-0.063 -0.827,-0.047 -2.148,-0.079 -3.661,-0.366 -0.296,-0.056 -1.231,-0.35 -1.514,-0.487 -0.781,-0.447 -0.426,-1.569 0.185,-2.103 0.368,-0.32 1.904,-0.016 2.186,0.034 3.108,0.665 4.7,0.675 7.491,0.607 0.046,-1.511 0.065,-3.15 0.4,-5.056 0.145,-0.909 0.176,-1.844 0.813,-2.573 0.314,-0.395 0.883,-0.395 1.33,-0.28 0.502,0.173 0.594,0.789 0.613,1.25 -0.053,0.832 -0.229,1.519 -0.283,2.351 -0.116,1.245 -0.185,2.496 -0.204,3.747 -0.032,1.951 -0.21,3.91 0.002,5.856 0.015,0.457 0.097,0.906 0.14,1.36 C 6.848,1.636 6.92,2.551 7.171,3.428 7.436,4.386 7.857,5.299 8.041,6.28 8.1,7.141 7.452,7.839 7.358,8.673 7.297,9.057 7.573,9.389 7.873,9.587 c 0.488,0.318 1.067,0.433 1.61,0.621 0.784,0.267 1.616,0.25 2.432,0.327 1.5,0.053 2.299,0.27 3.797,0.142 0.917,-0.022 1.763,-0.158 2.682,-0.149 0.49,-0.017 0.904,0.241 0.951,0.691 0.061,0.794 -0.707,1.677 -1.723,1.761"
       style="fill:#293d9b;fill-opacity:1;fill-rule:nonzero;stroke:none"
       transform="matrix(1.3333333,0,0,-1.3333333,26.1908,38.4948)"
       clip-path="url(#clipPath62)" />
    <path
       id="path63"
       d="m 0,0 c -2.15,-0.065 -3.9,-0.188 -6.051,-0.139 -0.154,0.001 -0.305,0.067 -0.383,0.194 -0.077,0.128 -0.153,0.346 0.08,0.506 0.349,0.238 0.857,0.178 1.26,0.2 1.889,0.085 3.357,0.124 5.248,0.094 0.187,-0.004 0.396,0 0.601,-0.03 C 1.061,0.779 1.218,0.491 1.093,0.244 0.969,-0.003 0.381,0.028 0,0 M 2.496,1.927 C 1.448,2.622 0.127,2.7 -1.092,2.61 -2.083,2.586 -3.075,2.631 -4.066,2.581 -5.204,2.399 -6.052,2.626 -7.132,2.142 -7.663,1.872 -8.191,1.433 -8.3,0.819 c -0.025,-0.494 -0.006,-1.004 0.161,-1.474 0.143,-0.438 0.508,-0.825 0.976,-0.897 2.297,-0.269 4.247,-0.023 6.551,-0.113 1.121,0.003 2.357,0.066 3.267,0.803 0.303,0.206 0.38,0.587 0.453,0.921 0.127,0.666 -0.027,1.457 -0.612,1.868"
       style="fill:#293d9b;fill-opacity:1;fill-rule:nonzero;stroke:none"
       transform="matrix(1.3333333,0,0,-1.3333333,48.707867,29.007333)"
       clip-path="url(#clipPath64)" />
    <path
       id="path65"
       d="m 0,0 c -0.153,-0.017 -0.441,-0.038 -0.574,-0.047 -1.654,-0.096 -2.319,-0.199 -4.689,-0.188 -0.629,0.006 -1.302,-0.015 -1.782,0.052 -0.21,0.029 -0.395,0.099 -0.397,0.239 -0.002,0.14 0.092,0.275 0.226,0.327 0.264,0.104 0.809,0.154 1.438,0.166 1.266,-0.001 2.529,0.092 3.795,0.113 0.706,0.04 1.367,0.103 2.071,0.007 C 0.543,0.608 0.563,0.305 0.487,0.21 0.422,0.129 0.195,0.022 0,0 M 2.775,1.274 C 2.608,1.784 2.29,2.187 1.651,2.353 0.724,2.595 -0.584,2.63 -2.114,2.596 -3.349,2.568 -4.84,2.52 -5.566,2.466 -6.292,2.412 -6.742,2.39 -7.288,2.305 -7.959,2.203 -8.385,1.927 -8.713,1.588 -8.939,1.354 -9.115,1.064 -9.224,0.749 c -0.246,-0.92 -0.043,-1.793 0.711,-2.342 0.415,-0.303 1.009,-0.369 1.538,-0.361 2.717,0.155 5.447,-0.025 8.155,0.276 0.649,0.069 1.219,0.497 1.536,1.057 0.318,0.58 0.257,1.285 0.059,1.895"
       style="fill:#293d9b;fill-opacity:1;fill-rule:nonzero;stroke:none"
       transform="matrix(1.3333333,0,0,-1.3333333,49.406667,35.521333)"
       clip-path="url(#clipPath66)" />
    <path
       id="path67"
       d="M 0,0 C -0.635,-0.075 -1.697,-0.206 -2.426,-0.28 -2.449,0.196 -2.442,0.495 -2.431,0.972 -1.629,1.027 -0.529,1.28 0.276,1.185 0.252,0.725 0.274,0.397 0,0 M 2.527,4.361 C 2.141,4.495 1.783,4.231 1.484,4.022 1.068,3.653 0.746,2.938 0.262,2.89 -0.453,2.819 -1.562,2.666 -2.35,2.601 c 0.207,0.338 0.403,0.612 0.639,0.9 0.419,0.435 0.549,0.777 0.365,1.07 C -1.473,4.772 -1.7,4.838 -2.005,4.816 -3.761,4.691 -5.752,4.677 -7.585,4.506 -8.176,4.45 -8.065,3.381 -7.515,3.143 -6.849,2.855 -5.639,3.156 -4.975,3.147 -5.007,2.838 -5.05,2.538 -5.05,2.342 -5.904,2.172 -6.246,2.162 -7.162,2.006 -8.195,1.819 -9.036,1.748 -9.448,1.365 -9.791,1.044 -9.909,0.602 -9.759,0.169 c 0.083,-0.242 0.618,-0.793 1.424,-0.584 0.595,0.155 1.152,0.443 1.54,0.59 0.608,0.231 1.181,0.377 1.722,0.421 0.062,-0.484 0.075,-0.579 0.073,-1.065 -0.896,-0.144 -1.512,-0.335 -2.297,-0.564 -0.5,-0.166 -1.252,-0.458 -1.581,-0.709 -0.311,-0.237 -0.731,-0.527 -0.773,-0.891 -0.175,-0.766 0.501,-1.518 0.903,-1.464 0.577,0.077 1.31,0.542 1.789,0.818 0.789,0.455 1.462,0.813 2.342,0.878 0.133,-0.305 0.252,-1.077 0.409,-1.494 0.293,-0.785 0.723,-1.544 1.303,-2.337 0.379,-0.517 1.091,-0.829 1.581,-0.551 0.504,0.288 0.372,1.192 0.249,1.646 -0.351,1.143 -0.638,1.163 -0.925,2.322 -0.022,0.127 -0.214,0.648 -0.209,0.774 0.352,0.121 1.256,0.278 1.77,0.246 0.944,-0.059 1.257,-0.253 1.838,-0.068 0.351,0.112 0.46,0.355 0.502,0.474 0.51,1.455 0.915,2.767 1.317,4.256 C 3.39,3.431 3.097,4.152 2.527,4.361"
       style="fill:#293d9b;fill-opacity:1;fill-rule:nonzero;stroke:none"
       transform="matrix(1.3333333,0,0,-1.3333333,48.9704,45.2056)"
       clip-path="url(#clipPath68)" />
    <path
       id="path69"
       d="m 0,0 -2.151,0.135 1.541,-1.504 z m -0.126,-1.843 c 0,0 0.697,-0.68 0.893,-0.876 0.309,-0.308 0.501,0.243 0.761,0.162 0.156,-0.05 0.17,-0.194 0.103,-0.345 L 1.123,-4.04 C 1.063,-4.176 0.958,-4.258 0.833,-4.206 0.6,-4.112 0.766,-3.711 0.472,-3.414 0.2,-3.138 -3.188,0.27 -3.331,0.415 -3.492,0.578 -3.55,0.813 -3.433,1.069 c 0.13,0.286 0.411,0.347 0.616,0.34 C -2.302,1.391 2.324,1.135 2.586,1.127 2.848,1.119 3.031,1.417 3.248,1.338 3.401,1.281 3.412,1.094 3.344,0.943 L 2.643,-0.632 c -0.072,-0.162 -0.338,-0.185 -0.38,0.102 -0.035,0.236 -0.096,0.389 -0.397,0.41 -0.167,0.011 -1.19,0.077 -1.19,0.077 z"
       style="fill:#293d9b;fill-opacity:1;fill-rule:nonzero;stroke:none"
       transform="matrix(1.3333333,0,0,-1.3333333,10.292,23.984933)"
       clip-path="url(#clipPath70)" />
    <path
       id="path71"
       d="m 0,0 c 0.25,-0.11 0.334,-0.241 0.27,-0.375 -0.097,-0.204 -0.374,-0.091 -0.69,-0.241 -0.168,-0.08 -0.376,-0.333 -0.376,-0.333 0,0 -3.071,-3.158 -3.306,-3.402 -0.24,-0.248 -0.507,-0.435 -0.985,-0.223 -0.455,0.201 -0.485,0.607 -0.474,0.895 0.013,0.289 0.267,4.448 0.267,4.448 0,0 0.027,0.341 0.007,0.545 -0.04,0.404 -0.398,0.652 -0.277,0.893 0.069,0.137 0.215,0.16 0.427,0.067 L -3.511,1.553 C -3.284,1.453 -3.229,1.34 -3.287,1.199 -3.364,1.015 -3.688,1.033 -3.841,0.918 -3.981,0.813 -4.033,0.451 -4.033,0.451 l -0.235,-3.786 2.704,2.796 c 0,0 0.189,0.207 0.189,0.369 0,0.272 -0.369,0.435 -0.247,0.66 0.06,0.109 0.198,0.14 0.372,0.063 z"
       style="fill:#293d9b;fill-opacity:1;fill-rule:nonzero;stroke:none"
       transform="matrix(1.3333333,0,0,-1.3333333,53.0324,7.2826667)"
       clip-path="url(#clipPath72)" />
    <path
       id="path73"
       d="m 0,0 c 0.122,-0.272 0.085,-0.424 -0.063,-0.477 -0.245,-0.089 -0.4,0.382 -0.803,0.201 l -3.856,-1.731 c -0.403,-0.182 -0.153,-0.626 -0.446,-0.758 -0.134,-0.061 -0.277,-0.02 -0.399,0.252 l -1.525,3.395 c -0.232,0.517 0.28,0.789 0.58,0.933 0.218,0.103 0.406,0.12 0.476,-0.06 C -5.999,1.659 -6.054,1.526 -6.167,1.263 -6.293,0.971 -6.345,0.856 -6.198,0.529 l 0.482,-1.075 c 0.102,-0.225 0.368,-0.325 0.595,-0.224 l 1.412,0.635 -0.574,1.28 c -0.175,0.388 -0.686,0.086 -0.768,0.427 -0.045,0.183 0.308,0.393 0.575,0.513 0.48,0.215 0.899,0.377 1,0.192 C -3.335,2.024 -3.83,1.858 -3.64,1.434 l 0.575,-1.28 1.688,0.757 c 0.376,0.17 0.099,0.641 0.362,0.759 0.14,0.063 0.277,-0.027 0.399,-0.298 z"
       style="fill:#293d9b;fill-opacity:1;fill-rule:nonzero;stroke:none"
       transform="matrix(1.3333333,0,0,-1.3333333,14.562,49.333333)"
       clip-path="url(#clipPath74)" />
    <path
       id="path75"
       d="m 0,0 c -0.209,-0.341 -0.189,-0.598 0.083,-0.882 0.253,-0.264 0.341,-0.451 0.242,-0.6 -0.12,-0.18 -0.324,-0.096 -0.474,-0.003 l -2.429,1.498 c -0.278,0.171 -0.313,0.324 -0.217,0.462 0.114,0.164 0.427,0.088 0.697,0.022 0.542,-0.132 0.671,0.043 0.819,0.282 L 0.36,3.438 C 0.645,3.901 0.437,4.073 0.261,4.22 0.138,4.322 0.038,4.398 -0.086,4.496 -0.213,4.596 -0.305,4.763 -0.161,4.915 -0.012,5.073 0.358,4.907 0.819,4.793 1.578,4.604 1.856,4.715 2.176,4.535 2.485,4.361 2.515,4.077 2.376,3.852 Z"
       style="fill:#293d9b;fill-opacity:1;fill-rule:nonzero;stroke:none"
       transform="matrix(1.3333333,0,0,-1.3333333,20.513733,63.862)"
       clip-path="url(#clipPath76)" />
    <path
       id="path77"
       d="M 0,0 C 0.134,0.639 0.09,1.451 -0.704,1.617 -1.46,1.775 -1.859,1.179 -1.999,0.419 -2.104,-0.155 -1.994,-0.96 -1.265,-1.123 -0.522,-1.289 -0.165,-0.79 0,0 m -1.855,-1.781 c -1.273,0.275 -1.95,1.133 -1.686,2.397 0.322,1.533 1.718,1.907 2.93,1.653 1.581,-0.331 2.379,-1.63 2.057,-3.168 -0.454,-2.168 -2.567,-3.318 -4.642,-2.994 -0.219,0.034 -0.52,0.125 -0.502,0.304 0.022,0.224 0.495,0.239 0.954,0.368 1.33,0.375 1.852,0.903 2.101,1.477 -0.353,-0.145 -0.832,-0.12 -1.212,-0.037"
       style="fill:#293d9b;fill-opacity:1;fill-rule:nonzero;stroke:none"
       transform="matrix(1.3333333,0,0,-1.3333333,31.4156,63.736533)"
       clip-path="url(#clipPath78)" />
    <path
       id="path79"
       d="M 0,0 C 0.292,0.482 0.599,0.779 0.971,1.053 1.974,1.796 3.235,1.948 3.992,0.913 5.015,-0.484 4.258,-1.94 2.776,-2.803 1.862,-3.335 0.901,-3.254 0.481,-2.837 c -0.265,0.263 -0.179,0.693 0.155,0.885 0.287,0.165 0.575,0.063 0.846,-0.131 0.449,-0.322 0.775,-0.263 1.07,-0.095 0.621,0.354 0.767,1.07 0.152,1.939 C 2.248,0.404 1.629,0.509 1.02,0.039 0.514,-0.351 0.31,-0.986 0.03,-1.164 c -0.204,-0.13 -0.354,0.026 -0.454,0.191 L -1.796,1.506 C -1.868,1.63 -1.83,1.789 -1.71,1.869 L 1.424,3.963 C 1.549,4.047 1.72,3.99 1.769,3.847 L 2.046,3.098 C 2.093,2.962 2.042,2.812 1.922,2.732 l -2.5,-1.671 z"
       style="fill:#293d9b;fill-opacity:1;fill-rule:nonzero;stroke:none"
       transform="matrix(1.3333333,0,0,-1.3333333,49.8564,61.5952)"
       clip-path="url(#clipPath80)" />
    <path
       id="path81"
       d="M 0,0 C 0.707,0.142 0.905,1.095 0.566,2.782 0.227,4.466 -0.328,5.289 -1.035,5.146 -1.742,5.005 -1.971,4.025 -1.633,2.34 -1.307,0.723 -0.663,-0.133 0,0 M -1.18,5.778 C 0.519,6.12 1.827,5.122 2.223,3.152 2.587,1.345 1.994,-0.246 0.158,-0.648 c -1.59,-0.346 -3.075,0.605 -3.466,2.706 -0.397,2.135 0.656,3.424 2.128,3.72"
       style="fill:#293d9b;fill-opacity:1;fill-rule:nonzero;stroke:none"
       transform="matrix(1.3333333,0,0,-1.3333333,42.278667,68.566267)"
       clip-path="url(#clipPath82)" />
  </g>
</svg>
