<?xml version="1.0" encoding="UTF-8" standalone="no"?>
<!-- Created with Inkscape (http://www.inkscape.org/) -->

<svg
   version="1.1"
   id="svg1"
   width="548.04688"
   height="200"
   viewBox="0 0 548.04688 200"
   sodipodi:docname="upload_b7lgvik2nkvklmx7chn5icfm65.pdf"
   xmlns:inkscape="http://www.inkscape.org/namespaces/inkscape"
   xmlns:sodipodi="http://sodipodi.sourceforge.net/DTD/sodipodi-0.dtd"
   xmlns="http://www.w3.org/2000/svg"
   xmlns:svg="http://www.w3.org/2000/svg">
  <defs
     id="defs1" />
  <sodipodi:namedview
     id="namedview1"
     pagecolor="#ffffff"
     bordercolor="#000000"
     borderopacity="0.25"
     inkscape:showpageshadow="2"
     inkscape:pageopacity="0.0"
     inkscape:pagecheckerboard="0"
     inkscape:deskcolor="#d1d1d1">
    <inkscape:page
       x="0"
       y="0"
       inkscape:label="1"
       id="page1"
       width="548.04688"
       height="200"
       margin="0"
       bleed="0" />
  </sodipodi:namedview>
  <g
     id="g1"
     inkscape:groupmode="layer"
     inkscape:label="1">
    <path
       id="path1"
       d="m 80.543,5.566 c -0.566,0.368 -14.57,9.477 -29.805,24.411 l 26.129,40.222 0.406,-0.711 c 0.598,-1.023 1.211,-2 1.832,-2.972 L 54.578,28.609 h 7.984 l 20.626,31.996 c 23.417,-31.675 54.078,-33.238 59.117,-32.16 -3.125,0.793 -2.309,0.633 -3.61,1 h 0.02 c -15.606,4.41 -30.77,23.477 -40.699,38.672 l 35.652,54.789 H 125.68 L 94.102,74.316 c -0.813,1.332 -1.567,2.645 -2.262,3.793 l 29.09,44.797 h -7.985 L 88.18,84.699 l -0.864,1.613 -1.089,1.961 22.402,34.633 h -7.988 L 82.301,94.488 C 67.289,115.738 47.105,125.211 21.746,122.91 43.855,118.172 58.633,100.738 67.488,86.957 L 38.801,42.785 C 26.934,56.801 16.285,73.961 12.844,92.84 c -1.137,5.25 -1.18,10.676 -0.133,15.945 0.074,0.293 0.156,0.574 0.25,0.856 8.812,27.461 42.101,22.925 74.574,5.726 -8.683,5.309 -17.922,9.645 -27.558,12.922 C 42.445,134.312 19.938,137.621 6.84,122.305 4.02,119.059 1.988,115.207 0.91,111.043 0.117,108.035 -1.648,98.133 3.855,82.859 8.5,70.004 18.332,54.344 35.727,38.051 l -6.149,-9.473 h 7.91 l 3.235,4.965 c 0.91,-0.793 1.847,-1.594 2.8,-2.395 l -1.652,-2.539 h 4.731 c 8.91,-7.132 18.3,-13.644 28.109,-19.488 1.906,-1.191 3.84,-2.422 5.851,-3.566 z m 89.434,94.789 -0.02,19.583 -9.863,3.089 v -22.668 h 9.89 z m 85.671,-11.777 9.954,12.938 9.527,-12.946 h 11.828 l -16.68,22.653 v 9.211 l -9.566,2.601 V 111.293 L 243.855,88.578 Z m -42.464,0.016 h -31.278 v 34.41 l 9.926,-2.961 v -9.441 h 17.066 l 2.961,-7.418 h -20.027 v -7.239 h 18.895 z m 115.207,0 -2.946,7.863 h -9.972 v 23.941 l -9.629,2.614 V 96.457 h -12.5 v -7.863 z m 80.777,0.191 -15.852,16.442 17.793,17.218 H 397.5 l -13.234,-13.207 h -2.414 v 11.418 l -9.809,2.156 V 88.895 h 9.801 v 12.648 h 2.422 l 12.461,-12.766 h 12.445 z m -42.375,0.137 -2.488,7.14 h -20.387 v 6.567 h 21.48 l -2.121,6.422 h -19.359 v 6.621 h 22.875 l -2.488,7.008 H 334.121 V 88.922 Z m -144.449,0.023 9.683,0.02 v 25.719 l 19.801,-0.043 -2.961,8.004 -26.523,-0.012 z m -52.367,1.11 v 8.238 h -9.883 v -8.238 h 9.89 z m 135.218,-46.188 0.078,27.254 6.145,-1.098 -3.324,8.297 -12.703,3.52 V 51.223 h -3.723 V 43.867 Z M 190.93,23.512 l -1.86,7.121 -8.488,1.027 v 5.367 h 10.348 l -3.176,6.832 h -7.172 v 33.723 l -8.359,4.047 V 43.867 H 161.59 v -6.832 h 10.633 v -4.644 l -10.075,0.953 v -7.262 l 28.782,-2.566 z m 188.793,2.097 -3,16.192 0.707,-3.75 h 13.043 c 0.648,0.035 1.297,-0.113 1.867,-0.434 0.066,-0.066 0.203,-0.152 0.277,-0.222 v 7.714 h -16.508 l -5.429,29.364 h 21.925 v 0.039 l 16.5,0.078 -3.667,6.98 h -12.833 v -0.043 l -33.398,-0.031 9.465,-48.574 h -11.645 v -7.277 l 22.688,-0.036 z M 216.898,22.043 v 39.445 l 4.286,-0.222 -2.485,7.324 -1.801,0.148 v 9.039 l -8.73,3.512 v -12.18 l -15.813,1.118 V 63 l 15.813,-1.133 V 22.043 Z m 129.168,3.301 v 48.277 h 4.567 l -3.461,7.051 -11.031,0.066 0.066,-47.972 h -9.195 v 16.316 h 7.804 l -3.511,7.352 h -4.289 v 20.187 l -9.805,4.484 V 56.434 h -6.281 v -7.352 h 6.281 V 32.766 h -5.867 v -7.422 z m -84.5,-0.446 0.067,9.485 h 23.679 l -3.585,7.418 H 262.32 l 23.75,38.945 H 273.227 L 256.246,52.535 239.957,80.738 H 226.973 L 250.109,41.801 H 228.5 v -7.41 h 22.301 V 24.898 H 261.57 Z M 45.938,34.855 c -0.856,0.899 -1.715,1.817 -2.571,2.75 L 71.32,80.562 c 0.723,-1.269 1.391,-2.468 2,-3.597 z m 126.191,10.497 -2.145,30.031 -7.906,2.39 2.356,-32.421 z m 17.609,0 2,31.238 -7.55,-3.594 -1.872,-27.644 z m 199.223,5.566 3.656,3.816 3.594,3.754 c 0.68,0.789 1.5,1.434 2.41,1.903 1.035,0.277 2.106,0.402 3.172,0.363 h 7.328 v 7.062 h -9.519 c -1.762,0.102 -3.528,-0.07 -5.235,-0.511 -0.644,-0.219 -1.23,-0.571 -1.726,-1.032 h -0.024 v -11.48 l -0.023,11.48 c -0.469,-0.402 -0.91,-0.835 -1.321,-1.296 l -0.402,-0.473 -12.07,-13.586 z m -191.055,-4.559 6.977,6.391 -6.477,6.832 -6.976,-6.394 6.476,-6.821 z M 409.141,25.645 400.41,41.699 c -0.383,0.613 -0.816,1.172 -1.301,1.696 -0.464,0.562 -1.039,1.027 -1.691,1.355 -1.223,0.289 -2.48,0.41 -3.734,0.367 l -1.043,-0.015 v -7.707 c 0.539,-0.54 1,-1.157 1.386,-1.833 l 5.934,-9.917 z m -211.157,2.351 6.977,6.387 -6.5,6.765 -7.031,-6.332 z m 101.481,-3.098 6.836,6.25 -6.418,6.684 -6.832,-6.25 z"
       style="fill:#07285a;fill-opacity:1;fill-rule:nonzero;stroke:none"
       transform="scale(1.3333333)" />
  </g>
</svg>
