<?xml version="1.0" encoding="UTF-8" standalone="no"?>
<!-- Created with Inkscape (http://www.inkscape.org/) -->

<svg
   version="1.1"
   id="svg1"
   width="503.71094"
   height="200"
   viewBox="0 0 503.71094 200"
   sodipodi:docname="upload_ppnwjcv2cmzjy75euqhyyiuhx2.pdf"
   xmlns:inkscape="http://www.inkscape.org/namespaces/inkscape"
   xmlns:sodipodi="http://sodipodi.sourceforge.net/DTD/sodipodi-0.dtd"
   xmlns="http://www.w3.org/2000/svg"
   xmlns:svg="http://www.w3.org/2000/svg">
  <defs
     id="defs1" />
  <sodipodi:namedview
     id="namedview1"
     pagecolor="#ffffff"
     bordercolor="#000000"
     borderopacity="0.25"
     inkscape:showpageshadow="2"
     inkscape:pageopacity="0.0"
     inkscape:pagecheckerboard="0"
     inkscape:deskcolor="#d1d1d1">
    <inkscape:page
       x="0"
       y="0"
       inkscape:label="1"
       id="page1"
       width="503.71094"
       height="200"
       margin="0"
       bleed="0" />
  </sodipodi:namedview>
  <g
     id="g1"
     inkscape:groupmode="layer"
     inkscape:label="1">
    <path
       id="path1"
       d="m 53.34,33.043 c 0.797,-4.488 1.551,-8.977 2.598,-13.422 0.929,-3.937 2.23,-7.844 4.628,-11.156 1.723,-2.379 4.219,-4.418 7.106,-5.145 4.937,-1.234 6.992,3.586 5.273,7.672 -1.441,3.453 -4.945,5.188 -7.515,7.688 -3.946,3.808 -5.614,9.816 -6.852,15.269 5.129,1.184 10.027,3.203 14.496,5.981 6.821,4.258 12.469,10.152 16.418,17.156 4.063,7.242 6.164,15.422 6.102,23.726 -0.172,24.461 -19.258,45.055 -43.676,47.129 C 24.766,130.312 1.137,109.52 0.035,82.285 -0.34,72.52 2.293,62.875 7.578,54.656 c 2.727,-4.222 6.102,-7.992 10,-11.168 0.586,-0.476 1.184,-0.937 1.793,-1.386 -1.094,-2.239 -2.113,-4.516 -3.055,-6.829 -1.609,-3.621 -2.777,-7.421 -3.48,-11.32 -0.121,-0.691 -0.215,-1.398 -0.281,-2.117 -0.067,-0.641 -0.114,-1.285 -0.137,-1.93 -0.07,-1.695 0.16,-3.386 0.68,-5 0.394,-1.289 1.136,-2.445 2.156,-3.336 1.984,-1.636 4.922,-1.355 6.566,0.625 2.813,3.364 2.067,8.016 1.371,12.36 -0.273,1.687 -0.531,3.332 -0.578,4.836 -0.093,3.187 0.633,6.449 1.707,9.5 2.352,-1.336 4.836,-2.387 6.907,-4.196 1.578,-1.383 2.371,-4.211 4.406,-4.922 1.566,-0.546 3.23,0.469 4.609,1.309 0.25,0.152 0.485,0.297 0.711,0.426 1.539,0.812 3.25,1.23 4.992,1.215 0.664,0.023 1.332,0.023 2.008,0.023 0.641,0 1.281,0 1.922,0.024 1.16,0.05 2.313,0.14 3.461,0.273 z m 218.105,43.543 -0.875,4.578 C 260.082,79.16 255.434,73.461 253.695,70.602 h -2.41 v 11.043 h -4.883 V 70.602 H 244 c -1.723,2.855 -6.371,8.55 -16.855,10.562 l -0.875,-4.582 c 6.191,-1.187 9.855,-3.82 11.898,-5.98 h -12.055 v -4.563 h 20.289 v -2.351 h -12.781 c -3.129,0 -4.613,-1.5 -4.613,-4.614 v -9.523 c -0.766,0.707 -1.504,1.394 -2.32,2.074 l -3.114,-3.742 c 4.801,-3.996 8.899,-8.774 12.125,-14.125 l 4.285,2.344 c -0.773,1.355 -1.625,2.668 -2.539,3.929 h 5.407 c 3.394,0 5.32,-0.633 7.546,-3.746 0.582,-0.808 1.118,-1.652 1.594,-2.527 l 4.289,2.344 -0.851,1.421 c -0.676,1.012 -1.559,1.868 -2.594,2.508 h 17.219 v 4.344 H 252.18 v 2.18 h 16.652 v 4.187 h -16.656 v 2.285 h 16.656 v 4.231 h -16.656 v 2.078 h 17.879 v 4.336 h -18.746 v 2.371 h 20.293 v 4.562 h -12.059 c 2.043,2.161 5.676,4.793 11.902,5.981 z m -67.636,-27.219 4.007,-0.515 c -0.066,-4.766 -0.421,-9.52 -1.062,-14.243 l -4.84,0.7 0.074,0.519 c 0.864,4.477 1.473,8.996 1.821,13.539 z M 137.43,76.949 v -5.816 h 16.875 v -4.867 h -16.879 v 4.812 h -4.875 v 4.274 c 0,0.285 -0.235,0.519 -0.524,0.515 h -3.39 V 67.68 h 2.234 c 3.356,0 5.559,-2.207 5.559,-5.559 V 41.465 h -7.782 v -6.5 h -4.882 v 6.5 h -7.582 v 26.172 h 7.582 v 8.191 h -7.68 v 5.102 h 17.375 c 2.473,0 3.969,-1.496 3.969,-3.981 z m 82.949,1.117 c -4.461,-3.75 -8.336,-7.265 -11.57,-10.968 1.671,-2.203 3.152,-4.543 4.421,-6.996 3.309,-6.414 3.586,-13.29 3.586,-19.774 h -5.101 c 0,5.863 -0.235,12.035 -3.02,17.442 -0.929,1.8 -1.992,3.535 -3.172,5.187 -1.175,-1.652 -2.234,-3.387 -3.168,-5.187 -2.785,-5.407 -3.019,-11.579 -3.019,-17.442 h -5.098 c 0,6.227 0.282,13.36 3.582,19.774 1.274,2.453 2.75,4.796 4.422,6.996 -3.078,3.425 -6.402,6.632 -9.937,9.586 v -5.625 h -4.891 v 4.277 c 0,0.285 -0.23,0.516 -0.516,0.516 h -3.394 v -8.188 h 2.238 c 3.356,0 5.563,-2.207 5.563,-5.559 V 41.469 h -7.782 v -6.508 h -4.886 v 6.508 h -7.575 v 26.168 h 7.575 v 8.191 h -7.672 v 5.102 h 17.347 c 1.555,0 2.727,-0.594 3.376,-1.641 l 2.253,2.676 c 4.11,-3.356 7.977,-6.992 11.575,-10.895 3.597,3.903 7.464,7.539 11.574,10.895 z M 325.008,72.941 V 36.199 h -44.211 v 45.469 h 35.473 c 5.691,0 8.738,-3.051 8.738,-8.734 z m -161.735,1 c 1.036,-2.82 1.172,-9.117 1.172,-15.003 V 56.82 h -6.531 l 1.328,-20.066 h -21.304 v 4.555 h 16.085 l -1,15.511 h -8.335 l 0.929,-13.047 h -4.672 l -1.281,17.602 h 19.891 c -0.063,5.832 -0.344,9.273 -0.86,10.664 -0.734,2 -2.007,4.223 -6.906,4.223 h -7.625 v 4.676 h 7.844 c 5.937,-0.008 9.519,-2.219 11.265,-6.993 z m 156.856,-1 c 0,2.411 -1.438,3.848 -3.852,3.848 H 285.668 V 41.078 h 34.437 l 0.024,31.86 z M 92.125,74.297 C 90.57,56.457 76.344,42.023 60.352,42.047 44.363,42.066 32.77,56.461 34.289,74.211 c 1.52,17.75 15.656,32.164 31.613,32.266 15.961,0.105 27.762,-14.336 26.219,-32.18 z m 196.316,-9.149 1.696,4.579 c 7.129,-2.641 14.074,-7.86 18.062,-13.309 v 9.242 c -0.074,1.973 -1.73,3.516 -3.707,3.449 h -4.383 v 4.668 h 4.813 c 4.738,0 8.164,-3.3 8.164,-7.894 V 53.75 h 3.535 v -4.668 h -3.535 v -5.02 h -4.883 v 5.016 h -18.914 v 4.672 h 15.109 c -3.527,4.555 -9.921,9.164 -15.957,11.398 z M 233.805,46.555 h 13.484 v -2.176 h -13.25 l -0.234,0.269 z M 83.785,94.531 c -4.019,4.559 -9.746,7.242 -15.82,7.422 -6.848,0.211 -13.578,-2.594 -18.977,-7.82 -5.453,-5.348 -8.847,-12.442 -9.593,-20.039 -0.821,-8.114 1.503,-15.899 6.406,-21.375 4.031,-4.563 9.773,-7.246 15.855,-7.414 h 0.719 c 6.742,0 13.344,2.929 18.602,8.234 5.285,5.359 8.554,12.379 9.253,19.871 0.754,7.985 -1.605,15.684 -6.445,21.113 z m 39.992,-31.687 h -2.699 V 46.242 h 2.699 z m 4.883,-16.602 h 2.91 v 15.949 c 0,0.371 -0.3,0.672 -0.675,0.672 h -2.235 z m 50,16.602 h -2.699 V 46.242 h 2.699 z m 4.883,-16.602 h 2.914 v 15.949 c 0,0.371 -0.309,0.672 -0.68,0.672 h -2.234 z m 50.262,6.832 h 13.484 v -2.289 h -13.484 z m 0.922,6.301 h 12.566 v -2.07 h -13.488 v 1.144 c 0,0.801 0.125,0.926 0.922,0.926 z m 8.511,43.094 c -2.722,-3.766 -6.019,-5.375 -10.414,-5.375 -2.961,0.019 -5.793,1.222 -7.855,3.347 -2.067,2.125 -3.192,4.989 -3.125,7.95 0,5.976 3.797,11.136 10.289,11.136 6.883,0 9.918,-4.656 9.918,-7.988 h -9.172 v -4.437 h 13.965 v 16.601 c -0.668,0.231 -1.367,0.348 -2.074,0.344 -0.704,0.012 -1.403,-0.082 -2.075,-0.274 v -2.25 c 0,-0.3 0,-0.546 -0.297,-0.66 -0.328,-0.125 -0.828,0.219 -1.265,0.508 l -0.008,0.012 c -1.109,0.754 -2.305,1.375 -3.559,1.855 -1.953,0.821 -4.054,1.242 -6.171,1.242 -8.223,0 -14.86,-6.769 -14.86,-16.117 0,-9.347 6.906,-16.25 15.856,-16.25 7.332,0 11.261,2.43 14.863,7.399 l -4.016,2.961 z m 55.992,-10.36 c -4.292,0 -8.41,1.703 -11.445,4.743 -3.035,3.035 -4.742,7.152 -4.742,11.445 0,4.293 1.707,8.41 4.742,11.445 3.035,3.039 7.153,4.742 11.445,4.742 8.942,0 16.188,-7.246 16.188,-16.187 0,-8.942 -7.246,-16.188 -16.188,-16.188 z m -129.972,0.52 v 22.609 c -5.356,-8.617 -10.715,-16.418 -15.934,-22.609 -0.879,-0.188 -1.781,-0.281 -2.679,-0.277 -0.903,-0.004 -1.801,0.089 -2.684,0.277 v 31.187 c 0.875,0.184 1.769,0.274 2.668,0.27 0.894,0 1.789,-0.09 2.664,-0.274 V 99.656 c 5.687,7.785 10.98,15.848 15.867,24.156 0.895,0.188 1.805,0.278 2.719,0.274 0.906,0 1.816,-0.09 2.707,-0.274 V 92.629 c -0.875,-0.188 -1.77,-0.281 -2.668,-0.277 -0.895,-0.004 -1.785,0.089 -2.66,0.277 z m 171.965,0.094 v 18.492 c 0,5.019 -2.965,8.195 -7.868,8.195 -4.902,0 -7.859,-3.176 -7.859,-8.195 V 92.723 c -0.898,-0.192 -1.816,-0.282 -2.738,-0.278 -0.91,-0.004 -1.82,0.086 -2.715,0.278 v 18.675 c 0,9.11 5.844,13.094 13.312,13.094 7.473,0 13.329,-3.996 13.329,-13.094 V 92.723 c -0.891,-0.192 -1.801,-0.282 -2.711,-0.278 -0.926,-0.007 -1.848,0.086 -2.75,0.278 z M 124.938,92.547 c -4.727,10.101 -8.665,20.555 -11.778,31.265 0.926,0.192 1.867,0.282 2.813,0.274 0.922,0.004 1.836,-0.086 2.738,-0.274 0.695,-2.421 1.586,-5.265 2.684,-8.531 2.39,-0.281 4.8,-0.371 7.207,-0.265 3.394,0.289 5.14,0.765 6.742,1.488 0.707,0.316 1.074,0.519 1.265,1.113 0.641,2.059 1.258,4.121 1.852,6.188 0.922,0.191 1.855,0.281 2.793,0.281 0.926,0.016 1.844,-0.074 2.75,-0.266 -3.031,-10.734 -6.961,-21.195 -11.742,-31.273 z m 146.054,19.023 c 0.567,0.266 1.422,0.664 2.336,1.387 2.695,2.145 4.606,5.086 8.18,10.742 -1.012,0.293 -2.063,0.434 -3.11,0.418 -1.07,0.012 -2.136,-0.078 -3.187,-0.262 -0.027,-0.011 -2.231,-4.167 -3.113,-5.546 -1.512,-2.364 -2.657,-3.864 -4.106,-4.957 -1.332,-1.024 -3.211,-1.344 -5.703,-1.344 h -3.5 v 11.844 c -0.894,0.183 -1.805,0.273 -2.719,0.265 -0.91,0.008 -1.824,-0.082 -2.718,-0.265 V 92.633 h 13.46 c 7.325,0 12.395,2.015 12.395,9.344 0,4.156 -2.512,7.335 -6.746,8.554 -1.363,0.41 -2.125,0.258 -2.168,0.563 -0.02,0.133 0.25,0.261 0.699,0.472 z M 179.219,97.676 h 11.308 v 26.136 c 0.957,0.188 1.93,0.278 2.903,0.274 0.968,0 1.937,-0.09 2.89,-0.274 V 97.676 h 11.328 v -5.02 h -28.425 v 5.024 z m 187.664,-4.953 h -13.891 v 31.125 c 0.903,0.187 1.817,0.281 2.735,0.269 0.921,0.008 1.835,-0.082 2.734,-0.265 v -10.071 h 8.609 c 6.461,0 10.821,-4.148 10.821,-10.648 0,-6.492 -4.297,-10.41 -11.008,-10.41 z m -237.688,18.328 c -2.254,-0.004 -4.492,0.308 -6.656,0.929 1.926,-5.921 5.063,-13.222 5.598,-14.437 0.156,-0.348 0.32,-0.457 0.48,-0.457 0.156,0 0.313,0.094 0.445,0.391 0.583,1.281 3.719,8.582 5.555,14.074 -1.789,-0.321 -3.605,-0.489 -5.426,-0.5 z m 129.594,-3.699 h 7.141 v 0.015 c 4.695,0 7.847,-1.324 7.847,-5.394 0,-3.825 -2.215,-4.743 -6.882,-4.743 h -8.11 v 10.122 z m 40.441,11.734 c -2.859,0 -5.605,-1.137 -7.625,-3.164 -2.023,-2.024 -3.156,-4.774 -3.148,-7.633 0,-5.953 4.824,-10.781 10.777,-10.781 5.954,0 10.778,4.828 10.778,10.781 0.004,2.859 -1.133,5.606 -3.153,7.629 -2.023,2.023 -4.765,3.16 -7.629,3.16 z m 66.739,-10.172 h -7.508 V 97.586 h 7.508 c 4.699,0 6.742,1.555 6.742,5.703 0,4.152 -2.539,5.609 -6.742,5.609 z"
       style="fill:#1777ff;fill-opacity:1;fill-rule:nonzero;stroke:none"
       transform="scale(1.3333333)" />
  </g>
</svg>
