<?xml version="1.0" standalone="no"?>
<!DOCTYPE svg PUBLIC "-//W3C//DTD SVG 20010904//EN"
 "http://www.w3.org/TR/2001/REC-SVG-20010904/DTD/svg10.dtd">
<svg version="1.0" xmlns="http://www.w3.org/2000/svg"
 width="512.000000pt" height="512.000000pt" viewBox="0 0 512.000000 512.000000"
 preserveAspectRatio="xMidYMid meet">
<metadata>
Created by potrace 1.14, written by Peter Selinger 2001-2017
</metadata>
<g transform="translate(0.000000,512.000000) scale(0.100000,-0.100000)"
fill="#000000" stroke="none">
<path d="M2286 5108 c3 -4 -9 -6 -26 -4 -17 2 -33 0 -35 -4 -3 -5 -13 -7 -23
-6 -9 2 -20 -2 -24 -8 -5 -8 -8 -7 -8 2 0 9 -7 9 -30 -3 -23 -12 -30 -12 -30
-3 0 8 -3 9 -8 3 -4 -5 -12 -11 -18 -12 -11 -2 -80 -11 -97 -12 -5 -1 -6 -5
-3 -9 2 -4 -8 -7 -22 -6 -15 1 -34 -2 -43 -7 -9 -4 -27 -10 -40 -13 -46 -8
-54 -11 -61 -21 -5 -6 -8 -5 -8 3 0 10 -4 10 -16 -2 -8 -9 -27 -16 -40 -16
-17 0 -23 -4 -18 -12 4 -7 3 -8 -5 -4 -6 4 -25 0 -42 -8 -17 -9 -35 -13 -40
-10 -5 3 -12 -1 -15 -10 -3 -8 -12 -12 -20 -9 -8 3 -14 0 -14 -7 0 -6 -4 -8
-10 -5 -5 3 -16 3 -22 -2 -7 -4 -15 -8 -18 -9 -18 -3 -39 -17 -36 -23 3 -4 -3
-7 -12 -7 -9 -1 -24 -3 -32 -5 -14 -4 -21 -8 -54 -36 -8 -7 -18 -13 -21 -13
-3 0 -3 6 1 13 4 6 -5 1 -19 -12 -15 -13 -33 -21 -41 -18 -9 4 -15 3 -13 -1 1
-4 -2 -8 -7 -9 -5 -1 -12 -5 -15 -10 -3 -4 -23 -17 -43 -28 -20 -10 -34 -23
-31 -28 3 -6 1 -7 -5 -3 -6 3 -16 1 -24 -6 -7 -7 -29 -22 -48 -32 -19 -11 -39
-26 -43 -33 -5 -7 -12 -11 -17 -8 -5 3 -16 -5 -25 -17 -8 -13 -17 -21 -18 -18
-1 3 -9 -1 -17 -8 -8 -7 -33 -26 -55 -43 -104 -80 -231 -198 -228 -211 2 -4
-2 -8 -7 -8 -15 0 -60 -47 -53 -54 4 -3 -1 -6 -10 -6 -9 0 -17 -7 -17 -16 0
-8 -5 -12 -10 -9 -10 6 -15 -9 -10 -30 1 -5 -1 -7 -5 -3 -8 8 -50 -28 -50 -43
0 -5 -5 -13 -11 -17 -6 -4 -24 -26 -41 -49 -17 -23 -34 -39 -38 -35 -5 4 -5 2
-2 -4 4 -6 -3 -20 -14 -30 -11 -10 -17 -24 -14 -33 3 -8 3 -12 -1 -8 -8 7 -40
-33 -36 -45 1 -5 -2 -8 -7 -8 -5 0 -16 -16 -25 -35 -9 -19 -21 -35 -27 -35 -6
0 -7 -4 -4 -10 3 -5 1 -10 -4 -10 -6 0 -11 -7 -11 -15 0 -9 -9 -25 -20 -37
-10 -12 -17 -25 -14 -30 3 -4 0 -8 -6 -8 -7 0 -10 -7 -6 -15 3 -8 1 -15 -3
-15 -12 0 -51 -76 -44 -84 4 -3 1 -6 -6 -6 -7 0 -9 -4 -6 -10 3 -5 1 -10 -4
-10 -6 0 -11 -9 -11 -20 0 -11 -5 -20 -10 -20 -6 0 -9 -3 -8 -7 4 -15 -13 -53
-23 -53 -6 0 -7 -4 -4 -10 3 -5 -1 -23 -10 -40 -8 -16 -15 -31 -14 -32 0 -2
-4 -16 -10 -31 -6 -16 -8 -33 -5 -39 4 -7 2 -8 -4 -4 -7 4 -13 1 -13 -8 -2
-25 -4 -30 -12 -43 -5 -8 -3 -13 5 -13 8 0 7 -4 -4 -11 -10 -5 -15 -16 -12
-24 4 -8 1 -15 -7 -15 -7 0 -10 -3 -7 -6 4 -3 2 -20 -3 -37 -6 -18 -12 -41
-14 -52 -3 -11 -8 -31 -11 -45 -3 -14 -7 -37 -8 -52 0 -16 -5 -28 -9 -28 -5 0
-6 -4 -2 -9 3 -5 0 -13 -6 -17 -8 -4 -7 -9 2 -15 8 -5 9 -9 3 -9 -6 0 -10 -15
-9 -35 1 -26 -2 -34 -12 -31 -11 5 -11 1 -2 -15 6 -13 7 -24 2 -28 -5 -3 -8
-23 -7 -43 1 -21 -2 -36 -6 -33 -3 2 -7 -2 -7 -10 0 -8 5 -11 10 -8 6 3 7 1 3
-5 -14 -23 -16 -56 -3 -64 9 -6 9 -8 0 -8 -17 0 -16 -342 1 -352 8 -6 8 -8 -1
-8 -7 0 -13 -5 -13 -11 0 -5 3 -8 8 -6 4 3 7 -8 8 -24 1 -18 -3 -26 -10 -22
-6 4 -5 -1 3 -10 7 -9 10 -17 7 -17 -4 0 -3 -8 3 -17 6 -11 6 -24 -1 -36 -8
-15 -7 -18 2 -12 9 6 11 0 8 -24 -2 -17 -1 -31 3 -31 4 0 6 -11 4 -25 -1 -14
2 -25 7 -25 5 0 7 -4 3 -9 -3 -5 -1 -12 4 -16 6 -3 8 -12 4 -20 -3 -8 -2 -23
2 -32 5 -10 9 -25 11 -33 11 -63 29 -120 37 -120 5 0 4 -7 -3 -15 -9 -10 -9
-15 -1 -15 6 0 11 -11 11 -25 0 -14 4 -25 9 -25 5 0 8 -12 8 -26 0 -15 4 -29
9 -33 5 -3 11 -15 12 -26 2 -11 8 -25 13 -31 5 -6 10 -23 11 -37 1 -15 8 -29
15 -31 7 -3 10 -12 7 -21 -3 -8 -1 -15 5 -15 6 0 11 -7 11 -15 0 -9 14 -42 30
-75 17 -33 28 -60 24 -60 -3 0 2 -7 10 -16 9 -8 14 -19 11 -24 -3 -4 2 -10 10
-14 8 -3 15 -15 15 -26 0 -11 7 -23 16 -27 8 -3 13 -12 10 -20 -3 -7 1 -16 10
-20 8 -3 13 -12 10 -20 -3 -8 -2 -12 3 -9 5 3 14 -8 21 -24 7 -17 15 -30 19
-30 3 0 12 -13 19 -28 6 -16 21 -38 31 -49 11 -12 18 -23 15 -25 -2 -3 7 -15
21 -28 14 -13 25 -29 25 -37 0 -7 3 -13 8 -13 4 0 18 -16 31 -35 13 -19 28
-32 34 -28 5 3 7 1 4 -4 -10 -16 189 -233 214 -233 7 0 9 -3 6 -6 -8 -8 83
-95 93 -89 4 3 10 -4 13 -15 4 -14 10 -18 23 -13 10 4 15 2 11 -4 -8 -13 31
-45 46 -37 7 4 9 4 5 -1 -11 -11 156 -135 182 -135 5 0 10 -4 10 -10 0 -5 7
-10 15 -10 7 0 18 -8 24 -17 5 -10 13 -15 16 -11 4 4 16 -2 28 -13 11 -10 27
-19 34 -19 7 0 13 -5 13 -11 0 -5 5 -7 10 -4 6 3 13 -1 16 -9 3 -9 10 -14 14
-11 5 3 11 1 15 -5 4 -6 11 -8 16 -5 5 4 9 2 9 -4 0 -5 14 -12 30 -16 19 -4
30 -13 30 -23 0 -15 2 -15 10 -2 6 10 10 11 10 3 0 -7 9 -13 19 -13 11 0 23
-5 26 -10 4 -6 11 -8 16 -5 5 4 9 1 9 -5 0 -6 5 -8 10 -5 5 3 10 1 10 -4 0 -6
11 -11 24 -11 13 0 29 -7 36 -15 7 -9 19 -14 27 -11 7 3 13 1 13 -5 0 -6 4 -8
9 -4 5 3 13 0 16 -6 4 -5 13 -8 21 -5 8 3 14 1 14 -5 0 -6 4 -8 9 -4 5 3 12 1
16 -5 4 -6 11 -8 16 -5 5 4 9 2 9 -2 0 -5 9 -10 20 -11 11 -1 29 -3 40 -4 11
-1 20 -6 20 -11 0 -5 7 -7 15 -3 8 3 15 2 15 -2 0 -7 20 -12 63 -15 9 -1 17
-4 17 -8 0 -4 9 -5 20 -2 11 3 20 1 20 -5 0 -5 18 -9 40 -8 22 0 42 -4 44 -10
2 -6 18 -10 36 -8 17 2 29 0 26 -4 -2 -4 8 -7 22 -6 15 0 30 -4 34 -10 5 -8 8
-7 8 2 0 10 5 10 20 2 15 -8 20 -8 20 2 0 6 7 3 16 -8 8 -10 13 -13 9 -7 -7
15 11 18 20 3 4 -6 12 -7 18 -3 18 11 36 12 42 2 7 -10 425 -10 425 0 0 4 17
6 38 5 20 0 47 3 59 7 14 5 25 4 29 -3 5 -7 11 -5 20 6 8 12 14 14 19 6 5 -8
11 -8 21 1 8 6 14 8 14 4 0 -4 7 -2 15 5 12 10 15 10 15 -1 0 -10 3 -11 8 -3
4 7 24 14 45 17 20 3 44 10 51 16 10 9 16 9 21 1 5 -8 11 -8 21 1 8 6 14 9 14
5 0 -3 16 1 36 9 20 8 40 13 44 10 5 -3 14 1 22 8 7 8 18 12 25 10 6 -2 14 0
17 6 4 6 13 8 21 4 8 -3 15 0 15 7 0 6 5 8 10 5 6 -4 17 -1 25 5 8 7 15 9 15
6 0 -4 10 -1 23 6 12 7 29 13 37 13 8 1 14 5 13 10 -1 6 12 11 29 11 17 1 33
7 37 13 4 7 18 13 29 14 12 1 22 5 22 9 0 4 3 7 8 7 13 -3 72 25 72 34 0 4 5
5 10 2 6 -3 10 -1 10 5 0 6 4 8 10 5 5 -3 19 3 31 14 12 11 26 18 31 15 4 -3
8 0 8 6 0 6 5 8 10 5 6 -3 10 -1 10 5 0 7 7 9 16 6 8 -3 12 -2 9 4 -3 6 -2 10
3 10 5 0 25 11 45 24 19 13 38 22 41 18 3 -3 6 0 6 6 0 7 5 12 11 12 7 0 18 8
26 17 10 12 12 13 8 3 -4 -10 -2 -9 8 3 8 9 19 17 26 17 6 0 14 7 17 15 4 8
13 15 20 15 8 0 17 7 20 15 4 8 10 13 14 10 5 -3 15 4 23 15 7 11 17 17 20 13
4 -3 7 -1 7 5 0 7 5 12 10 12 14 0 56 43 52 53 -1 5 2 6 7 3 5 -4 12 -2 16 4
4 6 11 7 17 4 6 -4 9 -3 6 2 -5 11 38 54 46 46 3 -3 6 2 6 12 0 9 3 15 8 13
10 -6 52 40 44 49 -4 4 1 4 11 1 11 -4 17 -1 17 8 0 8 5 15 10 15 6 0 10 7 10
16 0 8 4 13 8 10 10 -6 42 29 42 45 0 5 5 7 10 4 6 -3 10 -2 10 3 0 5 18 27
41 50 24 25 37 47 33 53 -4 8 -3 9 4 5 6 -4 19 6 29 21 10 15 23 32 30 36 8 5
11 12 8 18 -4 5 1 9 9 9 10 0 13 6 9 18 -3 9 -3 14 2 10 8 -7 85 95 85 112 0
6 4 10 9 10 9 0 20 23 22 45 0 6 7 14 14 18 8 4 22 24 32 45 9 20 21 40 26 43
5 3 8 8 7 10 -6 11 45 97 53 92 6 -3 7 -1 3 6 -4 6 -2 19 6 28 7 9 12 18 11
19 -4 6 30 78 47 98 8 11 10 16 3 12 -7 -4 -13 -3 -13 3 0 5 8 15 18 20 9 6
14 11 10 11 -6 0 11 54 50 160 3 8 7 22 9 30 5 18 8 30 15 50 13 36 28 99 28
119 0 11 4 21 8 21 4 0 8 12 9 28 1 54 3 63 11 58 4 -2 7 13 6 35 0 21 3 39 7
39 5 0 6 7 3 15 -4 8 -1 22 5 29 9 10 9 16 1 21 -6 4 -7 12 -2 18 4 7 8 27 8
45 -1 17 3 32 8 32 5 0 3 6 -3 14 -8 9 -8 16 -2 20 6 4 9 95 8 240 -1 129 -5
232 -9 230 -4 -3 -7 15 -5 40 1 26 -1 42 -7 39 -5 -4 -7 1 -3 10 3 9 3 18 -1
21 -4 2 -7 25 -7 49 1 27 -3 43 -9 40 -5 -4 -7 1 -3 10 3 9 1 18 -6 21 -9 3
-8 8 3 15 12 8 12 11 1 11 -7 0 -11 6 -8 15 4 8 2 17 -4 21 -6 3 -8 12 -5 20
3 7 1 16 -4 19 -5 3 -7 12 -3 20 3 8 1 15 -4 15 -7 0 -13 22 -16 68 0 6 -4 12
-9 12 -5 0 -8 6 -6 13 1 6 -4 23 -11 36 -11 19 -11 22 1 16 10 -6 11 -5 1 6
-7 7 -13 21 -13 31 0 10 -5 18 -11 18 -5 0 -8 4 -5 8 3 5 -2 21 -9 36 -8 16
-13 32 -10 36 3 5 1 10 -4 12 -5 1 -11 12 -13 23 -1 11 -10 26 -18 33 -9 8
-10 11 -2 7 10 -6 11 -3 3 11 -29 53 -59 124 -53 124 4 0 2 4 -4 8 -15 10 -54
87 -54 107 0 9 -4 14 -9 10 -5 -3 -15 11 -22 30 -7 19 -17 35 -21 35 -4 0 -8
6 -8 13 0 7 -9 23 -20 35 -12 12 -17 22 -13 22 4 0 0 5 -9 11 -10 5 -18 15
-18 20 0 12 -52 90 -76 113 -8 9 -12 16 -7 16 4 0 3 4 -2 8 -26 19 -75 84 -69
93 3 5 0 8 -8 7 -7 -2 -12 3 -10 10 1 6 -2 11 -7 10 -10 -3 -51 40 -51 54 0 4
-7 8 -17 8 -9 0 -14 3 -11 6 9 8 -85 103 -96 96 -5 -3 -6 0 -3 5 4 6 -3 19
-15 29 -12 11 -18 13 -13 5 5 -10 4 -12 -3 -7 -7 4 -12 13 -12 19 0 7 -18 25
-40 40 -23 16 -37 33 -34 39 4 6 2 8 -4 4 -6 -3 -28 10 -49 29 -21 19 -44 35
-51 35 -7 0 -10 5 -7 10 3 6 0 10 -7 10 -7 0 -26 13 -43 28 -30 28 -36 32 -55
32 -5 0 -10 7 -10 16 0 8 -4 13 -9 10 -5 -3 -20 3 -34 14 -14 11 -30 20 -36
20 -6 0 -11 5 -11 10 0 6 -7 10 -15 10 -8 0 -15 4 -15 8 0 5 -16 14 -35 22
-19 7 -32 17 -29 22 3 5 2 7 -3 6 -15 -4 -73 21 -73 32 0 6 -4 8 -10 5 -5 -3
-10 -1 -10 5 0 6 -4 9 -9 5 -5 -3 -12 -1 -16 5 -3 5 -15 10 -26 10 -10 0 -19
5 -19 10 0 6 -7 10 -15 10 -9 0 -27 7 -40 16 -14 9 -25 14 -25 10 0 -3 -16 3
-36 14 -19 11 -39 18 -45 15 -5 -4 -9 -1 -9 6 0 7 -3 10 -6 7 -3 -4 -17 0 -31
7 -15 8 -30 12 -35 9 -4 -3 -8 0 -8 5 0 6 -11 11 -25 11 -14 0 -25 4 -25 8 0
8 -14 12 -52 13 -10 0 -18 4 -18 8 0 4 -14 8 -31 9 -17 0 -38 7 -47 14 -10 8
-13 9 -9 1 5 -7 -4 -6 -23 4 -17 8 -37 12 -45 9 -8 -3 -15 -1 -15 4 0 5 -8 9
-17 9 -40 1 -53 5 -53 14 0 5 -6 4 -13 -2 -8 -6 -17 -8 -21 -4 -3 4 -12 8 -19
9 -7 1 -21 6 -31 10 -15 6 -17 4 -11 -7 8 -12 6 -12 -8 0 -9 7 -17 11 -17 7 0
-3 -11 -1 -25 4 -18 7 -25 6 -25 -3 0 -6 -5 -4 -11 6 -8 14 -14 16 -25 6 -8
-6 -14 -7 -14 -2 0 5 -9 9 -20 9 -11 0 -20 -4 -20 -8 0 -4 -5 -8 -11 -8 -5 0
-8 4 -5 9 3 4 -76 9 -175 10 -138 2 -179 -1 -173 -10 5 -8 3 -9 -7 -3 -17 10
-119 12 -113 2z"/>
</g>
</svg>
