<svg id="illustration" xmlns="http://www.w3.org/2000/svg" viewBox="0 0 400 400"><defs><style>.cls-1,.cls-16{fill:#2b2b2b;}.cls-1{opacity:0.1;}.cls-2{fill:#8b6651;}.cls-3{fill:#35785d;}.cls-4{fill:#54b08b;}.cls-5{fill:#dfbda5;}.cls-6{fill:#c3987b;}.cls-7{fill:#738d57;}.cls-8{fill:#446125;}.cls-9{fill:#99c26d;}.cls-10{fill:#5a753d;}.cls-11{fill:#8f8f8f;}.cls-12{fill:#dddddc;}.cls-13{fill:#c4c4c4;}.cls-14{fill:#72c9a6;}.cls-15{fill:#ececeb;}.cls-17{fill:#e8cab6;}</style></defs><title>Advocate (INFJ) personality</title><polygon class="cls-1" points="66.63 389.24 165.61 400 319.18 387.78 173.5 377.11 66.63 389.24"/><polygon class="cls-2" points="301.22 154.11 309.75 146.58 317.12 134.04 316.58 105.39 299.44 122.81 294.39 142.84 301.22 154.11"/><polygon class="cls-3" points="346.32 52.94 343.68 54.89 331.9 75.74 327.01 82.66 328.25 96.7 317.12 104.22 318.79 109.73 311.9 125.75 305.49 129.93 297.97 146.42 309.75 146.58 322.68 109.91 334.58 99.9 334.13 82.35 346.32 52.94"/><polygon class="cls-4" points="313.35 129.11 318.79 109.73 317.12 104.22 305.49 129.93 313.35 129.11"/><polygon class="cls-4" points="343.68 54.89 346.32 52.94 341.89 53.28 327.01 82.66 333.13 79.07 343.68 54.89"/><polygon class="cls-5" points="290.99 129.93 295.47 114.54 314.37 102.27 317.12 104.22 313.35 112.38 305.53 119.23 305.49 129.93 302.17 137.2 294.39 142.84 290.99 129.93"/><polygon class="cls-6" points="328.43 105.08 327.01 137.25 309.75 146.58 317.12 104.22 328.43 105.08"/><polygon class="cls-3" points="193.93 361.17 193.93 374.84 210.81 369.63 220.4 362.34 223.54 350.03 193.93 361.17"/><polygon class="cls-3" points="121.41 348.87 116.34 374.91 130.95 374.84 144.81 366.07 147.92 359.52 121.41 348.87"/><polygon class="cls-4" points="220.4 362.34 193.93 374.84 193.93 381.94 216.38 383.83 243.96 381.94 220.4 362.34"/><rect class="cls-3" x="193.93" y="381.94" width="50.03" height="6.76"/><polygon class="cls-4" points="144.81 366.07 150.97 385.69 133.64 389.07 113.88 385.69 116.34 374.91 144.81 366.07"/><rect class="cls-3" x="113.88" y="385.69" width="37.09" height="6.76"/><polygon class="cls-6" points="90.94 259.26 80.64 271.13 76.32 276.11 81.84 281.22 95.37 262.53 90.94 259.26"/><polygon class="cls-5" points="80.64 240.1 67.46 245.08 62.1 256.7 68.89 272.63 76.32 276.11 76.33 276.1 86.75 265.4 80.64 240.1"/><polygon class="cls-2" points="91.45 258.68 71.89 235.45 67.46 245.08 86.75 265.4 90.94 259.26 91.45 258.68"/><polygon class="cls-6" points="76.32 276.11 62.1 256.7 56.65 275.58 65.62 288.56 76.33 276.1 76.32 276.11"/><polygon class="cls-7" points="147.05 172.4 137.11 170.9 110.89 168.15 145.9 196.4 148.37 204.7 164.35 237.21 185.84 216.25 147.05 172.4"/><polygon class="cls-8" points="133.64 209.71 145.21 230.01 157.33 235.45 166.06 223.02 148.37 192.2 133.64 209.71"/><polygon class="cls-7" points="244.09 198.56 192.45 274.48 166.06 223.02 145.21 230.01 105.68 340.08 159.1 372.41 159.29 372.55 247.89 337.67 244.09 198.56"/><polygon class="cls-9" points="225.45 204.28 207.97 234.81 199.06 226.82 185.84 216.25 166.06 223.02 160 364.97 239 198.07 226.12 202.47 225.45 204.28"/><polygon class="cls-9" points="110.89 168.15 70.5 221.86 119.21 229.28 138.39 182.45 110.89 168.15"/><polygon class="cls-7" points="70.49 221.86 70.5 221.86 89.88 260.76 100.83 256.97 137.11 184.41 70.49 221.86"/><polygon class="cls-10" points="138.39 182.45 89.88 256.7 107.47 255.38 117.57 249.27 148.37 192.2 138.39 182.45"/><polygon class="cls-3" points="86.75 265.4 112.84 256.7 117.57 249.27 89.88 256.7 70.5 221.86 70.49 221.86 65.57 228.32 86.75 265.4"/><polygon class="cls-11" points="255.45 92.62 227.63 97.99 229.49 111.89 232.33 128.76 246.39 118.97 255.45 92.62"/><polygon class="cls-12" points="224.34 79.79 232.04 100.7 255.45 92.62 224.34 79.79"/><polygon class="cls-11" points="235.31 146.42 240.71 150.82 252.13 153.15 262.11 131.89 246.21 137.2 235.31 146.42"/><polygon class="cls-13" points="246.39 118.97 227.63 118.97 235.31 146.42 262.11 131.89 246.39 118.97"/><polygon class="cls-13" points="130.91 137.2 107.95 143.49 101.26 161.02 115.08 163.56 132.72 148.6 130.91 137.2"/><polygon class="cls-11" points="127.94 121.18 96.03 129.56 107.95 143.49 129.67 147.59 135.99 137.2 127.94 121.18"/><polygon class="cls-12" points="128.03 98.21 121.72 99.57 116.91 93.42 96.03 129.56 128.66 125.05 128.03 98.21"/><polygon class="cls-11" points="146.08 152.34 101.26 161.02 110.89 168.15 149.35 161.86 146.08 152.34"/><polygon class="cls-11" points="228.34 79.52 228.4 79.79 228.37 79.52 228.34 79.52"/><polygon class="cls-7" points="304.85 174.11 285.99 135.95 269.81 156.2 251.79 193.74 304.85 174.11"/><polygon class="cls-9" points="235.31 146.42 233 168.51 257.33 188.53 269.81 156.2 235.31 146.42"/><polygon class="cls-10" points="239 198.07 273.42 203.34 294.39 188.53 300.13 171.18 257.33 188.53 239 169.1 209.66 138.78 239 198.07"/><polygon class="cls-3" points="290.99 129.93 285.99 135.95 300.13 171.18 273.42 203.34 281.21 204.04 309.27 173.15 290.99 129.93"/><polygon class="cls-7" points="226.12 202.47 239 198.07 232.58 185 226.12 202.47"/><polygon class="cls-4" points="185.84 216.25 187.52 217.31 185.84 216.25 185.84 216.25"/><polygon class="cls-4" points="185.84 216.25 185.84 216.25 137.11 185.34 137.11 185.34 185.84 216.25"/><polygon class="cls-3" points="227.98 185.24 221.48 202.81 220.86 204.27 226.12 202.47 232.58 185 230.12 179.98 227.98 185.24"/><polygon class="cls-4" points="178.1 155.53 174.89 169.1 144.81 182.45 190.49 214.18 190.76 214.57 220.86 204.27 178.1 155.53"/><polygon class="cls-14" points="136.69 180.06 144.81 182.45 180.37 169.1 129.67 147.59 115.08 163.56 136.69 180.06"/><polygon class="cls-3" points="207.97 134.86 207.91 134.74 207.7 134.88 207.97 134.86"/><polygon class="cls-3" points="187.53 209.58 115.08 163.56 110.89 168.15 185.84 216.25 213.45 252.05 228.5 204.28 187.53 209.58"/><polygon class="cls-3" points="178.1 155.53 161.47 144.17 130.91 137.2 129.67 147.59 180.37 169.1 178.1 155.53"/><polygon class="cls-5" points="237.29 131.25 220.66 34.15 193.02 12.86 175.48 27.69 139.06 25.3 132.72 31.07 145.9 56.8 168.54 150.1 201.85 140.91 237.29 131.25"/><polygon class="cls-15" points="193.02 18.4 220.66 34.15 204.18 12.16 190.62 8.19 187.77 12.86 193.02 18.4"/><polygon class="cls-12" points="190.62 8.19 162.75 0.01 163.41 20.79 178.45 34.15 193.02 18.4 190.62 8.19"/><polygon class="cls-13" points="136.2 20.79 136.5 24.05 138.75 25.9 178.4 34.2 178.45 34.15 162.75 0.01 136.2 20.79"/><polygon class="cls-11" points="174.15 49.57 175.48 53.57 161.12 64.04 159.26 59.36 174.15 49.57"/><polygon class="cls-11" points="195.15 46.01 196.74 50.79 211.71 53.13 212.72 49.89 195.15 46.01"/><polygon class="cls-6" points="161.12 64.04 196.97 100.7 195.14 69.47 181.95 56.72 193.13 54.76 198.89 70.83 204.24 79.7 211.71 53.13 196.74 50.79 193.13 54.76 181.95 56.72 175.48 53.57 161.12 64.04"/><polygon class="cls-6" points="148.98 42.22 139.06 25.3 122.71 53.13 130.92 62.61 132.72 87.56 125.31 79.24 119.92 87.41 110.89 90.75 118.31 112.4 125.95 110.49 130.92 111.49 128.66 125.05 130.91 137.2 163.41 149.82 169.43 150.23 148.98 42.22"/><polygon class="cls-2" points="125.95 110.49 128.66 125.05 135.88 107.82 125.95 110.49"/><polygon class="cls-2" points="185 145.56 163.41 149.82 179.82 156.2 185 145.56"/><polygon class="cls-2" points="116.91 93.42 129.67 101.96 126.31 90.38 116.91 93.42"/><polygon class="cls-3" points="160 364.97 105.68 340.08 103.28 347.65 159.1 372.41 159.29 372.55 248.1 345.88 247.89 337.67 160 364.97"/><polygon class="cls-13" points="196.97 100.7 172.6 122.63 187.53 209.58 214.88 234.77 216.98 238.48 216.03 242.17 213.45 252.05 228.43 262.46 218.44 156.2 204.21 102.27 196.97 100.7"/><polygon class="cls-15" points="231.3 232.26 244.09 198.56 229.49 111.89 208.34 98.21 204.21 102.27 228.43 262.46 236.65 246.5 232.44 239.66 230.12 236.28 231.3 232.26"/><polygon class="cls-8" points="232.44 239.66 216.03 242.17 214.88 234.77 231.3 232.26 232.44 239.66"/><polygon class="cls-2" points="215.27 114.87 192.56 118.75 191.54 114.14 214.25 110.27 215.27 114.87"/><circle class="cls-16" cx="175.32" cy="76.08" r="4.24"/><circle class="cls-16" cx="208.34" cy="68.59" r="4.24"/><polygon class="cls-17" points="193.13 54.76 201.28 66.34 208.34 98.21 196.97 100.7 190.81 69.23 181.95 56.72 193.13 54.76"/><polygon class="cls-11" points="106.37 44.45 119.92 87.41 124.25 85.86 133.48 91.2 136.14 57.36 125.51 51.13 139.06 25.3 136.2 20.79 106.37 44.45"/><polygon class="cls-11" points="208.34 98.21 196.97 100.7 204.69 105.39 208.34 98.21"/></svg>



